<svg width="25" height="24" viewBox="0 0 25 24" fill="none" xmlns="http://www.w3.org/2000/svg">
<path fill-rule="evenodd" clip-rule="evenodd" d="M5.07877 0.0146411C5.06003 0.0216149 4.97169 0.0327765 4.88248 0.0394667C4.79327 0.046157 4.71619 0.058236 4.7112 0.066311C4.70622 0.074386 4.67619 0.0809929 4.64449 0.0809929C4.61279 0.0809929 4.57381 0.0876163 4.55788 0.0957246C4.48961 0.13046 4.44108 0.14651 4.37297 0.156871C4.3331 0.162927 4.25914 0.189638 4.20862 0.216199C4.1581 0.242776 4.1089 0.264515 4.09927 0.264515C4.07363 0.264515 3.89877 0.351422 3.87199 0.377465C3.85938 0.389744 3.8162 0.415221 3.77606 0.43409C3.73592 0.45296 3.70307 0.474198 3.70307 0.481289C3.70307 0.488396 3.68992 0.49894 3.67387 0.504746C3.61931 0.524483 3.56487 0.561855 3.5277 0.6051C3.50731 0.628824 3.48324 0.648244 3.4742 0.648244C3.46515 0.648244 3.4123 0.693291 3.35673 0.748347C3.30115 0.803404 3.248 0.84845 3.23859 0.84845C3.22918 0.84845 3.21717 0.861581 3.21189 0.877647C3.20662 0.893714 3.16111 0.947736 3.11076 0.997704C3.0604 1.04769 3.01491 1.10211 3.00965 1.11866C3.0044 1.13521 2.99319 1.14876 2.98474 1.14876C2.97101 1.14876 2.95064 1.17604 2.84877 1.33078C2.83312 1.35454 2.80723 1.40027 2.79124 1.43239C2.77524 1.4645 2.75763 1.49453 2.75209 1.49912C2.74655 1.50371 2.7289 1.53749 2.71286 1.5742C2.68393 1.64048 2.67814 1.65174 2.61705 1.76051C2.59956 1.79166 2.58501 1.83005 2.58471 1.84581C2.58443 1.86159 2.57317 1.88909 2.55969 1.90689C2.54622 1.92471 2.5352 1.95295 2.5352 1.96969C2.5352 1.98641 2.52842 2.01313 2.52013 2.02907C2.51186 2.045 2.49611 2.09182 2.48515 2.13311C2.47418 2.1744 2.45862 2.22093 2.45054 2.23651C2.44248 2.2521 2.43082 2.33682 2.42465 2.42477C2.41846 2.51273 2.40703 2.58864 2.39922 2.59347C2.38069 2.60493 2.3807 3.31301 2.39924 3.32447C2.40705 3.32929 2.41778 3.40577 2.42306 3.49441C2.42835 3.58307 2.44073 3.66365 2.45056 3.67348C2.4604 3.68332 2.46846 3.70875 2.46846 3.72999C2.46846 3.75121 2.47508 3.78162 2.48319 3.79756C2.50205 3.83461 2.52634 3.89446 2.55251 3.96833C2.58468 4.05908 2.65762 4.20963 2.67249 4.21589C2.67985 4.21901 2.70075 4.25421 2.71894 4.29413C2.73712 4.33406 2.75999 4.37166 2.76975 4.37769C2.77951 4.38373 2.79455 4.40483 2.80312 4.42459C2.83232 4.49174 2.87528 4.54703 3.0374 4.72608C3.07961 4.77271 3.12098 4.82361 3.12934 4.8392C3.13768 4.8548 3.2364 4.96124 3.34872 5.07576C3.52805 5.25863 3.56581 5.30556 3.54874 5.3243C3.54645 5.32682 3.56145 5.35036 3.58211 5.3766C3.60276 5.40286 3.61965 5.43833 3.61965 5.45545C3.61965 5.47257 3.62715 5.48656 3.63633 5.48656C3.64551 5.48656 3.65301 5.50864 3.65301 5.53563C3.65301 5.56262 3.65982 5.5889 3.66815 5.59404C3.67647 5.5992 3.68862 5.67659 3.69514 5.76603C3.70166 5.85549 3.71308 5.93629 3.72048 5.94559C3.75147 5.98444 3.78123 7.00434 3.75308 7.06319C3.74431 7.08154 3.73373 7.18289 3.72958 7.28842C3.71493 7.66035 3.67789 8.18691 3.66553 8.19917C3.65864 8.20602 3.65301 8.26139 3.65301 8.32227C3.65301 8.38313 3.64611 8.44006 3.63768 8.44878C3.62924 8.45749 3.61833 8.51343 3.61341 8.57308C3.5786 8.99571 3.56693 9.10206 3.55254 9.12758C3.54357 9.14352 3.53623 9.19 3.53623 9.23087C3.53623 9.27175 3.52872 9.30984 3.51954 9.31551C3.51037 9.32118 3.50286 9.37042 3.50286 9.42494C3.50286 9.47946 3.49647 9.52406 3.48868 9.52406C3.48087 9.52406 3.46959 9.59316 3.46359 9.67762C3.4576 9.76205 3.44522 9.83863 3.43606 9.84779C3.4079 9.87595 3.41589 10.2323 3.44689 10.3301C3.46197 10.3777 3.48074 10.4238 3.4886 10.4325C3.49644 10.4412 3.50286 10.4627 3.50286 10.4801C3.50286 10.4976 3.52163 10.5342 3.54457 10.5615C3.56751 10.5888 3.58628 10.6207 3.58628 10.6325C3.58628 10.6608 3.8694 10.9422 3.89788 10.9422C3.91001 10.9422 3.91996 10.9492 3.91996 10.9578C3.91996 10.9663 3.93684 10.9781 3.95749 10.9839C3.99525 10.9945 4.09113 11.0365 4.20842 11.0938C4.24319 11.1108 4.30906 11.1297 4.35477 11.1358C4.4005 11.1418 4.44193 11.1533 4.44685 11.1613C4.45179 11.1692 4.47413 11.1758 4.49653 11.1758C4.51894 11.1758 4.53726 11.1833 4.53726 11.1924C4.53726 11.2016 4.55558 11.2091 4.57798 11.2091C4.60039 11.2091 4.62335 11.2166 4.62902 11.2258C4.63469 11.235 4.6599 11.2425 4.68506 11.2425C4.71022 11.2425 4.7398 11.2515 4.75081 11.2625C4.76593 11.2776 4.77083 11.5233 4.77083 12.2659V13.2493L4.69027 13.3262C4.64595 13.3685 4.52209 13.4869 4.41503 13.5893C4.30796 13.6918 4.21324 13.7781 4.20455 13.7812C4.19584 13.7843 4.10443 13.8694 4.00139 13.9703C3.89837 14.0712 3.8044 14.1576 3.79261 14.1622C3.77274 14.1699 3.69384 14.2439 3.13033 14.7836C3.01774 14.8915 2.92031 14.9797 2.91382 14.9797C2.90733 14.9797 2.82843 15.0537 2.73852 15.1442C2.6486 15.2347 2.55855 15.3175 2.53843 15.3283C2.5183 15.3391 2.50183 15.3584 2.50183 15.3711C2.50183 15.3839 2.49135 15.3968 2.47852 15.3997C2.45415 15.4054 2.21949 15.6213 1.83609 15.9908C1.71133 16.1111 1.59611 16.2141 1.58005 16.2197C1.564 16.2253 1.55085 16.2414 1.55085 16.2555C1.55085 16.2695 1.54259 16.281 1.5325 16.281C1.51483 16.281 1.26294 16.5112 0.975707 16.7899C0.900029 16.8633 0.823934 16.9316 0.806583 16.9418C0.789248 16.9519 0.747272 17.0002 0.71332 17.0491C0.659482 17.1267 0.530982 17.248 0.501585 17.2491C0.495996 17.2493 0.447563 17.2905 0.393958 17.3408C0.340353 17.3911 0.291219 17.4322 0.284762 17.4322C0.262406 17.4322 0.0576282 17.6482 0.0285149 17.7025C-0.00129914 17.7581 -0.010058 17.9474 0.0134328 18.0287C0.0263795 18.0735 0.189364 18.2459 0.239349 18.2677C0.276137 18.2837 0.335314 18.3188 0.349612 18.3331C0.37297 18.3565 0.433365 18.3803 0.496147 18.3909C0.534753 18.3974 0.570557 18.4096 0.575745 18.418C0.580917 18.4264 0.60304 18.4332 0.624896 18.4332C0.646752 18.4332 0.668674 18.4398 0.673596 18.4477C0.678535 18.4557 0.752177 18.4673 0.837248 18.4734C0.922335 18.4795 1.04449 18.4929 1.10873 18.5031C1.20683 18.5186 1.2406 18.5172 1.31985 18.4941C1.37173 18.479 1.46004 18.4666 1.5161 18.4666C1.57217 18.4666 1.63108 18.46 1.64702 18.4519C1.69323 18.4285 1.84031 18.383 1.86943 18.3831C1.88406 18.3832 1.90964 18.3682 1.92624 18.3498C1.94284 18.3315 1.96653 18.3165 1.97887 18.3165C1.99122 18.3165 2.00131 18.3089 2.00131 18.2998C2.00131 18.2906 2.01071 18.283 2.02217 18.2828C2.03365 18.2826 2.11752 18.2113 2.20856 18.1243C2.31372 18.0238 2.38731 17.9661 2.41035 17.9661C2.45351 17.9661 2.48543 17.9326 2.53366 17.8367C2.58123 17.7421 2.72354 17.5993 2.89547 17.4738C2.98654 17.4072 3.17175 17.2415 3.36597 17.0526C3.45328 16.9678 3.52974 16.8983 3.53591 16.8983C3.54207 16.8983 3.56901 16.872 3.59581 16.8399C3.62258 16.8078 3.64928 16.7815 3.65513 16.7815C3.66099 16.7815 3.72239 16.7271 3.79159 16.6606C3.93831 16.5195 3.98199 16.4865 4.09514 16.4309C4.14102 16.4084 4.18231 16.3849 4.1869 16.3788C4.19149 16.3727 4.23099 16.3624 4.27469 16.3558C4.3184 16.3493 4.35826 16.3373 4.36326 16.3292C4.36828 16.321 4.39403 16.3144 4.42047 16.3144C4.44692 16.3144 4.47319 16.3069 4.47887 16.2977C4.48517 16.2875 4.61774 16.281 4.82088 16.281C5.02403 16.281 5.1566 16.2875 5.1629 16.2977C5.16858 16.3069 5.19485 16.3144 5.2213 16.3144C5.24774 16.3144 5.27337 16.3208 5.27826 16.3287C5.28313 16.3366 5.3227 16.348 5.36618 16.3539C5.45152 16.3656 5.53829 16.3982 5.53829 16.4186C5.53829 16.4255 5.55331 16.4312 5.57166 16.4312C5.59001 16.4312 5.60503 16.4387 5.60503 16.4479C5.60503 16.457 5.61295 16.4645 5.62263 16.4645C5.6323 16.4645 5.67173 16.4791 5.71022 16.497C5.84095 16.5576 5.98875 16.7574 5.98875 16.8736C5.98875 16.9315 5.95217 17.0165 5.91333 17.0488C5.89976 17.06 5.88865 17.0785 5.88865 17.0897C5.88865 17.101 5.86424 17.1282 5.83443 17.1502C5.78353 17.1877 5.66756 17.2949 5.19564 17.7409C5.08881 17.8418 4.98332 17.9355 4.96121 17.9491C4.93909 17.9627 4.92099 17.9833 4.92099 17.995C4.92099 18.0066 4.91134 18.0161 4.89957 18.0161C4.88779 18.0161 4.83735 18.0574 4.78752 18.1079C4.73768 18.1584 4.68725 18.1997 4.67547 18.1997C4.66369 18.1997 4.65405 18.2093 4.65405 18.221C4.65405 18.2328 4.609 18.287 4.55394 18.3415C4.49889 18.396 4.45384 18.454 4.45384 18.4705C4.45384 18.487 4.43152 18.521 4.40422 18.5461C4.35497 18.5914 4.35472 18.5926 4.36949 18.7063C4.38549 18.8296 4.40724 18.8702 4.43983 18.8377C4.45449 18.823 4.48297 18.8403 4.55771 18.9095C4.61192 18.9597 4.68016 19.013 4.70937 19.028C4.73858 19.043 4.76624 19.0598 4.77083 19.0654C4.79766 19.0983 5.00092 19.1673 5.07074 19.1673C5.0974 19.1673 5.12386 19.1748 5.12954 19.184C5.13521 19.1932 5.15666 19.2007 5.17723 19.2007C5.19781 19.2007 5.22175 19.2076 5.23047 19.2161C5.27949 19.2637 5.92879 19.2632 5.97958 19.2156C5.9883 19.2074 6.0202 19.2007 6.05048 19.2007C6.08077 19.2007 6.10554 19.1942 6.10554 19.1862C6.10554 19.1782 6.14026 19.1678 6.18269 19.163C6.22511 19.1582 6.26452 19.1478 6.27028 19.14C6.28793 19.1157 6.35368 19.0839 6.38603 19.0839C6.40291 19.0839 6.43435 19.0651 6.4559 19.0422C6.47746 19.0193 6.50178 19.0005 6.50997 19.0005C6.51817 19.0005 6.59611 18.9311 6.6832 18.8462C6.77028 18.7613 6.86926 18.6688 6.90315 18.6407C6.97796 18.5786 7.14259 18.5 7.1978 18.5C7.21996 18.5 7.24271 18.4925 7.24838 18.4833C7.25406 18.4741 7.28033 18.4666 7.30678 18.4666C7.33322 18.4666 7.3595 18.4591 7.36517 18.4499C7.37084 18.4407 7.40463 18.4332 7.44025 18.4332C7.47587 18.4332 7.50965 18.4257 7.51533 18.4166C7.52143 18.4067 7.62362 18.3999 7.76558 18.3999C7.90755 18.3999 8.00974 18.4067 8.01584 18.4166C8.02151 18.4257 8.0553 18.4332 8.09092 18.4332C8.12654 18.4332 8.16032 18.4407 8.166 18.4499C8.17167 18.4591 8.19795 18.4666 8.22439 18.4666C8.25083 18.4666 8.27711 18.4741 8.28278 18.4833C8.28846 18.4925 8.3159 18.5 8.34376 18.5C8.37163 18.5 8.41811 18.5123 8.44705 18.5274C8.54092 18.5763 8.55733 18.5834 8.57605 18.5834C8.61431 18.5834 8.84616 18.7921 8.88757 18.8638C8.89905 18.8837 8.90843 18.9457 8.90843 19.0017C8.90843 19.0894 8.90095 19.1142 8.85421 19.1813C8.82437 19.2241 8.78497 19.2699 8.76661 19.283C8.74826 19.2962 8.64591 19.3901 8.53915 19.4916C8.43239 19.5931 8.23118 19.7813 8.092 19.9098C7.95283 20.0382 7.75487 20.2236 7.65212 20.3216C7.54936 20.4196 7.44464 20.5159 7.41939 20.5355C7.39415 20.5551 7.37351 20.5819 7.37351 20.595C7.37351 20.6081 7.364 20.6188 7.35239 20.6188C7.34078 20.6188 7.2585 20.6883 7.16955 20.7732C7.08061 20.858 6.95897 20.9716 6.89921 21.0254C6.76594 21.1456 6.7143 21.2423 6.71502 21.3701C6.71555 21.4646 6.75581 21.5783 6.80162 21.6147C6.81539 21.6256 6.85773 21.6632 6.89571 21.6981C6.96805 21.7647 7.12182 21.8534 7.16485 21.8534C7.17868 21.8534 7.18999 21.8609 7.18999 21.8701C7.18999 21.8793 7.20831 21.8868 7.23072 21.8868C7.25312 21.8868 7.27608 21.8943 7.28175 21.9035C7.28742 21.9127 7.30888 21.9202 7.32945 21.9202C7.35002 21.9202 7.37622 21.9296 7.38768 21.941C7.42013 21.9735 8.30546 21.9703 8.41208 21.9374C8.45566 21.9239 8.49133 21.907 8.49133 21.8998C8.49133 21.8927 8.50565 21.8868 8.52316 21.8868C8.57894 21.8868 8.72592 21.7994 8.83232 21.703C8.88899 21.6516 8.94995 21.597 8.96777 21.5817C9.09013 21.4763 9.25412 21.3239 9.27307 21.298C9.28552 21.281 9.32681 21.2447 9.36483 21.2172C9.40285 21.1897 9.52131 21.0833 9.62805 20.9806C9.7348 20.878 9.92581 20.6964 10.0525 20.5771C10.6048 20.0572 10.6699 19.9955 10.6942 19.9685C10.7083 19.9528 10.7286 19.9369 10.7394 19.9332C10.7502 19.9295 10.837 19.8495 10.9322 19.7554C11.0275 19.6614 11.1123 19.5844 11.1208 19.5844C11.1293 19.5844 11.2299 19.4906 11.3443 19.3759C11.4587 19.2612 11.5577 19.1673 11.5644 19.1673C11.571 19.1673 11.6498 19.096 11.7394 19.0088C11.829 18.9217 11.9087 18.8503 11.9164 18.8503C11.9373 18.8503 11.9783 18.8057 11.9783 18.783C11.9783 18.7722 11.9895 18.7677 12.0033 18.773C12.0195 18.7792 12.0284 18.7725 12.0286 18.7539C12.0289 18.7246 12.1298 18.6317 12.1826 18.612C12.1987 18.606 12.2118 18.5936 12.2118 18.5845C12.2118 18.5621 12.2974 18.4758 12.3333 18.462C12.3491 18.4559 12.362 18.4395 12.362 18.4254C12.362 18.4114 12.3716 18.3999 12.3835 18.3999C12.3953 18.3999 12.4419 18.3623 12.4871 18.3165C12.5323 18.2706 12.5771 18.2329 12.5866 18.2328C12.5961 18.2327 12.6646 18.1737 12.7389 18.1016C12.8131 18.0296 12.8818 17.9677 12.8914 17.9642C12.9273 17.951 13.0601 17.8168 13.0656 17.7881C13.0688 17.7718 13.0886 17.7498 13.1098 17.7392C13.1309 17.7287 13.1684 17.702 13.1931 17.6799C13.3853 17.508 13.4695 17.4745 13.7551 17.4569C14.0391 17.4393 14.1086 17.4432 14.2235 17.4827C14.2761 17.5008 14.3589 17.5156 14.4074 17.5156C14.4559 17.5156 14.5002 17.5231 14.5059 17.5323C14.5115 17.5415 14.5345 17.549 14.5569 17.549C14.5793 17.549 14.5976 17.5565 14.5976 17.5657C14.5976 17.5749 14.6115 17.5824 14.6284 17.5824C14.6454 17.5824 14.681 17.5927 14.7077 17.6053C14.7343 17.6179 14.7805 17.6385 14.8103 17.6511C14.8402 17.6636 14.8646 17.6796 14.8646 17.6865C14.8646 17.6935 14.8746 17.6992 14.8869 17.6992C14.9166 17.6992 15.1023 17.8935 15.1373 17.9612C15.1749 18.0339 15.1734 18.1465 15.1344 18.181C15.1177 18.1959 15.094 18.2309 15.0818 18.2589C15.0695 18.2869 15.0303 18.3309 14.9945 18.3566C14.9587 18.3823 14.9101 18.4326 14.8865 18.4683C14.8628 18.5041 14.8378 18.5333 14.831 18.5333C14.8171 18.5333 14.5248 18.822 14.4725 18.8873C14.4541 18.9102 14.4059 18.9497 14.3653 18.9751C14.2631 19.039 14.2628 19.0393 14.0728 19.2216C13.9796 19.311 13.8944 19.3842 13.8834 19.3842C13.8725 19.3842 13.8635 19.3952 13.8635 19.4086C13.8635 19.4221 13.837 19.4511 13.8047 19.4731C13.7723 19.4951 13.6488 19.608 13.5303 19.7239C13.4117 19.8399 13.3086 19.9348 13.3011 19.9348C13.2936 19.9348 13.1938 20.0286 13.0794 20.1433C12.965 20.258 12.8646 20.3519 12.8563 20.3519C12.8292 20.3519 12.6868 20.5091 12.6576 20.5713C12.6282 20.6337 12.6216 20.7307 12.6393 20.8379C12.6502 20.9036 12.7515 21.0501 12.8049 21.0774C12.8231 21.0867 12.8649 21.115 12.8977 21.1402C12.9305 21.1654 12.9668 21.1861 12.9783 21.1861C12.9898 21.1861 13.0191 21.1964 13.0435 21.2091C13.1467 21.2627 13.2091 21.2827 13.4131 21.3278C13.6247 21.3745 14.3141 21.3416 14.3738 21.282C14.3807 21.2751 14.3985 21.2695 14.4134 21.2695C14.468 21.2695 14.6732 21.147 14.786 21.047C14.8498 20.9904 14.9774 20.8703 15.0697 20.7801C15.1619 20.6899 15.2642 20.5962 15.297 20.5718C15.3299 20.5474 15.368 20.5157 15.3818 20.5014C15.3955 20.487 15.4368 20.4622 15.4735 20.4462C15.5102 20.4301 15.5533 20.4099 15.5692 20.4011C15.5852 20.3924 15.6129 20.3853 15.6308 20.3853C15.6487 20.3853 15.6681 20.3777 15.6737 20.3686C15.6794 20.3594 15.7055 20.3519 15.7317 20.3519C15.7579 20.3519 15.7825 20.3425 15.7863 20.331C15.7917 20.3151 15.8903 20.3102 16.204 20.3102C16.5103 20.3102 16.62 20.3155 16.6356 20.331C16.647 20.3425 16.6738 20.3519 16.695 20.3519C16.7162 20.3519 16.7467 20.3585 16.7626 20.3666C16.8234 20.3976 16.8769 20.4171 16.9292 20.4273C16.959 20.4332 16.9834 20.4449 16.9834 20.4533C16.9834 20.4618 16.9915 20.4687 17.0014 20.4687C17.0301 20.4687 17.2492 20.6251 17.2498 20.646C17.2501 20.6563 17.2611 20.6737 17.2743 20.6847C17.3301 20.7309 17.3711 20.8417 17.3617 20.9208C17.352 21.0029 17.2753 21.134 17.2118 21.177C17.1677 21.2068 16.83 21.5176 16.4584 21.8701C15.9183 22.3827 15.8059 22.4877 15.7734 22.5104C15.7553 22.5231 15.6755 22.5964 15.5962 22.6731C15.5169 22.7499 15.4324 22.8262 15.4085 22.8427C15.3846 22.8592 15.3651 22.8836 15.3651 22.897C15.3651 22.9103 15.3585 22.9212 15.3504 22.9212C15.323 22.9212 15.2975 23.0133 15.2994 23.1051C15.3042 23.3338 15.4081 23.4724 15.6746 23.6057C15.7659 23.6513 15.8531 23.6887 15.8684 23.6887C15.8837 23.6887 15.8987 23.6961 15.9017 23.7051C15.9048 23.7142 15.9824 23.7258 16.0741 23.7309C16.1659 23.736 16.2678 23.7482 16.3005 23.7579C16.3417 23.7701 16.4215 23.7705 16.5591 23.7591C16.6686 23.75 16.7732 23.7419 16.7915 23.741C16.8611 23.7378 16.9507 23.7178 16.9595 23.7035C16.9646 23.6953 16.9868 23.6887 17.0088 23.6887C17.0515 23.6887 17.1556 23.6355 17.2918 23.5442C17.3376 23.5135 17.3834 23.4884 17.3936 23.4884C17.4038 23.4884 17.4864 23.4125 17.5773 23.3196C17.6682 23.2268 17.7622 23.1385 17.7862 23.1235C17.8279 23.0973 18.1623 22.7844 18.4616 22.4916C18.5389 22.4159 18.6074 22.3539 18.6138 22.3539C18.6202 22.3539 18.7363 22.247 18.8719 22.1162C19.0074 21.9854 19.2105 21.7939 19.323 21.6906C19.6426 21.3973 19.9482 21.1121 20.1721 20.8983C20.285 20.7905 20.3827 20.7022 20.3893 20.7022C20.3958 20.7022 20.4159 20.6835 20.434 20.6605C20.452 20.6376 20.4702 20.6188 20.4744 20.6188C20.4786 20.6188 20.5695 20.5325 20.6764 20.427C20.7833 20.3214 20.8765 20.2351 20.8835 20.2351C20.8906 20.2351 20.9824 20.1488 21.0876 20.0432C21.1929 19.9377 21.2855 19.8514 21.2935 19.8514C21.3015 19.8514 21.4053 19.7557 21.5243 19.6386C21.6433 19.5217 21.7541 19.4209 21.7705 19.4148C21.787 19.4087 21.805 19.3918 21.8105 19.3773C21.8161 19.3627 21.8359 19.3509 21.8546 19.3509C21.8732 19.3509 21.8885 19.3409 21.8885 19.3287C21.8885 19.3086 22.0266 19.1701 22.2277 18.9886C22.2705 18.9499 22.3056 18.9105 22.3056 18.901C22.3056 18.8915 22.3168 18.8837 22.3306 18.8837C22.3443 18.8837 22.3556 18.8754 22.3556 18.8652C22.3556 18.8551 22.3662 18.8508 22.3791 18.8558C22.3941 18.8615 22.4063 18.8502 22.4128 18.8242C22.4184 18.8019 22.43 18.7836 22.4385 18.7836C22.4725 18.7836 22.5387 18.702 22.5795 18.6098C22.6123 18.5357 22.6226 18.4849 22.6226 18.3967C22.6226 18.333 22.6308 18.2654 22.641 18.2465C22.6525 18.225 22.6534 18.2082 22.6434 18.2017C22.6211 18.1872 22.5995 17.8832 22.6023 17.6241C22.6134 16.6059 22.6267 16.0875 22.6424 16.0687C22.655 16.0535 22.7209 16.0474 22.8739 16.0474C22.9984 16.0474 23.092 16.0405 23.098 16.0308C23.1037 16.0216 23.13 16.0141 23.1564 16.0141C23.1829 16.0141 23.2086 16.0076 23.2135 15.9996C23.2184 15.9916 23.2535 15.9801 23.2914 15.9741C23.3294 15.968 23.3928 15.9407 23.4325 15.9135C23.4721 15.8862 23.5092 15.8639 23.5151 15.8639C23.5468 15.8639 23.7024 15.7285 23.7452 15.6637C23.7604 15.6408 23.7992 15.5845 23.8314 15.5386C23.8636 15.4927 23.8901 15.442 23.8903 15.426C23.8904 15.4099 23.8964 15.3968 23.9036 15.3968C23.9269 15.3968 23.9655 15.2381 24.0015 14.994C24.0064 14.9606 24.0022 14.9178 23.9921 14.8989C23.9819 14.88 23.9694 14.806 23.9641 14.7344C23.9589 14.6629 23.9481 14.5893 23.9401 14.5709C23.9322 14.5526 23.9215 14.5019 23.9164 14.4583C23.9113 14.4147 23.9031 14.3434 23.898 14.2998C23.8929 14.2562 23.8819 14.2055 23.8734 14.1872C23.865 14.1688 23.85 14.0637 23.8402 13.9536C23.8304 13.8435 23.8183 13.7084 23.8133 13.6533C23.8084 13.5983 23.7974 13.5461 23.789 13.5374C23.7806 13.5286 23.7737 13.4792 23.7737 13.4275C23.7737 13.3758 23.7681 13.328 23.7612 13.3211C23.7544 13.3143 23.7392 13.1648 23.7276 12.9888C23.716 12.8129 23.6985 12.5901 23.6887 12.4938C23.6645 12.2548 23.6512 11.0103 23.6724 10.9672C23.6814 10.9489 23.6923 10.8926 23.6966 10.8421C23.7111 10.6712 23.7498 10.467 23.7785 10.4099C23.7942 10.3787 23.8071 10.3437 23.8071 10.3322C23.8071 10.2948 23.8794 10.1747 23.902 10.1747C23.914 10.1747 23.924 10.1654 23.9242 10.1539C23.9244 10.1424 24.0182 10.0392 24.1327 9.92447C24.2472 9.80977 24.3409 9.70801 24.3409 9.69834C24.341 9.68868 24.3673 9.65529 24.3994 9.62416C24.4315 9.59303 24.4578 9.55894 24.4578 9.5484C24.4578 9.53785 24.4731 9.51532 24.4919 9.49833C24.5107 9.48133 24.5569 9.42197 24.5946 9.36644C24.6323 9.3109 24.6676 9.2617 24.6731 9.25712C24.6926 9.24075 24.7748 9.07341 24.7748 9.05009C24.7748 9.03701 24.7804 9.02383 24.7873 9.02076C24.8112 9.01011 24.8751 8.8695 24.8855 8.80457C24.8912 8.7686 24.9025 8.73514 24.9104 8.73022C24.9184 8.7253 24.9249 8.70294 24.9249 8.68054C24.9249 8.65813 24.9324 8.63981 24.9416 8.63981C24.9508 8.63981 24.9583 8.61504 24.9583 8.58476C24.9583 8.55447 24.9677 8.52032 24.9791 8.50884C24.9951 8.49294 25 8.34596 25 7.88904C25 7.43213 24.9951 7.28515 24.9791 7.26923C24.9677 7.25777 24.9583 7.2236 24.9583 7.19332C24.9583 7.16304 24.9508 7.13827 24.9416 7.13827C24.9324 7.13827 24.9249 7.11995 24.9249 7.09754C24.9249 7.07513 24.9174 7.05218 24.9082 7.0465C24.8991 7.04083 24.8916 7.01502 24.8916 6.98916C24.8916 6.93481 24.8628 6.85669 24.7653 6.64609C24.7374 6.58601 24.6746 6.49931 24.6081 6.4292C24.4612 6.27424 24.4096 6.20447 24.3259 6.04737C24.2766 5.95471 24.2034 5.85973 24.0785 5.72621C23.9809 5.62194 23.892 5.53661 23.8809 5.53661C23.8698 5.53661 23.8564 5.52535 23.8511 5.51159C23.8458 5.49782 23.8309 5.48656 23.818 5.48656C23.8051 5.48656 23.7845 5.47452 23.7723 5.4598C23.7601 5.44509 23.7322 5.42622 23.7102 5.41789C23.6883 5.40955 23.6665 5.38781 23.6617 5.36958C23.657 5.35134 23.6404 5.33641 23.625 5.33641C23.5892 5.33641 23.5071 5.29869 23.5069 5.28219C23.5069 5.2753 23.4974 5.26964 23.4859 5.26961C23.4745 5.26957 23.4281 5.2508 23.383 5.2279C23.3379 5.20499 23.2872 5.18625 23.2704 5.18625C23.2536 5.18625 23.2399 5.17935 23.2399 5.17089C23.2399 5.16245 23.2174 5.15062 23.19 5.14459C23.1626 5.13857 23.1358 5.12671 23.1306 5.11823C23.1254 5.10976 23.1028 5.10283 23.0804 5.10283C23.058 5.10283 23.0396 5.09533 23.0396 5.08615C23.0396 5.07697 23.0176 5.06947 22.9906 5.06947C22.9636 5.06947 22.9369 5.06196 22.9312 5.05278C22.9255 5.04361 22.903 5.0361 22.8812 5.0361C22.8593 5.0361 22.8372 5.02936 22.8322 5.02112C22.8271 5.01287 22.7687 5.0007 22.7025 4.99404C22.6363 4.9874 22.5687 4.97537 22.5523 4.96731C22.5359 4.95927 22.5075 4.94517 22.4893 4.936C22.4711 4.92682 22.4377 4.91931 22.4152 4.91931C22.3927 4.91931 22.3701 4.9125 22.3649 4.9042C22.3598 4.89587 22.3181 4.88391 22.2722 4.8776C22.2263 4.8713 22.1846 4.85933 22.1795 4.85101C22.1743 4.8427 22.1522 4.83589 22.1304 4.83589C22.1085 4.83589 22.086 4.82838 22.0803 4.81921C22.0747 4.81003 22.0446 4.80253 22.0136 4.80253C21.9826 4.80253 21.9531 4.79588 21.948 4.78776C21.943 4.77965 21.9052 4.76796 21.864 4.76178C21.8228 4.75559 21.7848 4.74346 21.7794 4.73482C21.7741 4.72618 21.7518 4.71911 21.73 4.71911C21.7081 4.71911 21.6856 4.7116 21.6799 4.70242C21.6742 4.69325 21.648 4.68574 21.6215 4.68574C21.5951 4.68574 21.5688 4.67823 21.5631 4.66905C21.5575 4.65988 21.5349 4.65237 21.5131 4.65237C21.4912 4.65237 21.4691 4.64556 21.464 4.63725C21.4589 4.62893 21.4152 4.61725 21.3671 4.61129C21.2856 4.6012 21.2395 4.58714 21.1671 4.55031C21.1512 4.54221 21.1235 4.53558 21.1055 4.53558C21.0876 4.53558 21.0688 4.52896 21.0638 4.52085C21.0588 4.51274 21.0134 4.50096 20.963 4.49466C20.9125 4.48835 20.867 4.47622 20.8617 4.46768C20.8564 4.45915 20.8342 4.45216 20.8124 4.45216C20.7905 4.45216 20.768 4.44466 20.7623 4.43548C20.7566 4.4263 20.7337 4.4188 20.7113 4.4188C20.6889 4.4188 20.6705 4.41226 20.6705 4.40426C20.6705 4.39627 20.6324 4.38466 20.5857 4.37847C20.539 4.37228 20.4883 4.36079 20.4731 4.35291C20.4578 4.34505 20.4115 4.32939 20.3702 4.31809C20.3289 4.30678 20.2539 4.28382 20.2034 4.26704C20.1529 4.25027 20.0778 4.23129 20.0366 4.22485C19.9953 4.21841 19.9369 4.19935 19.9068 4.1825C19.8766 4.16565 19.8371 4.15185 19.8189 4.15185C19.8007 4.15185 19.7728 4.14473 19.7569 4.13602C19.7409 4.12731 19.6924 4.11562 19.649 4.11003C19.6057 4.10446 19.5658 4.09279 19.5605 4.08415C19.5551 4.07551 19.5324 4.06844 19.51 4.06844C19.4876 4.06844 19.4693 4.06093 19.4693 4.05175C19.4693 4.04258 19.4435 4.03507 19.4119 4.03507C19.3803 4.03507 19.3501 4.02799 19.3448 4.01935C19.3394 4.01071 19.3013 3.99858 19.2602 3.99239C19.219 3.98622 19.1812 3.97452 19.1762 3.96641C19.1711 3.95829 19.1454 3.95165 19.1189 3.95165C19.0925 3.95165 19.0662 3.94414 19.0605 3.93496C19.0549 3.92579 19.0244 3.91828 18.9928 3.91828C18.9612 3.91828 18.9354 3.91077 18.9354 3.9016C18.9354 3.89242 18.9171 3.88491 18.8947 3.88491C18.8723 3.88491 18.8496 3.87792 18.8444 3.8694C18.8391 3.86086 18.7935 3.84873 18.7431 3.84242C18.6926 3.83611 18.6473 3.82433 18.6423 3.81623C18.6372 3.80812 18.6148 3.80149 18.5924 3.80149C18.57 3.80149 18.5517 3.79484 18.5517 3.7867C18.5517 3.77857 18.5311 3.76784 18.5058 3.76285C18.4806 3.75787 18.4111 3.74148 18.3515 3.72642C18.2918 3.71135 18.2223 3.69495 18.197 3.68995C18.1716 3.68496 18.1468 3.67421 18.1418 3.6661C18.1367 3.65798 18.1147 3.65134 18.0929 3.65134C18.071 3.65134 18.0485 3.64383 18.0428 3.63465C18.0372 3.62548 18.0161 3.618 17.996 3.61805C17.9588 3.61814 17.8164 3.57594 17.7636 3.54922C17.7477 3.54116 17.7157 3.53455 17.6925 3.53455C17.6693 3.53455 17.6354 3.52704 17.6172 3.51787C17.5989 3.50869 17.5706 3.49459 17.5542 3.48655C17.5377 3.47849 17.4852 3.46653 17.4374 3.45996C17.3896 3.45338 17.3463 3.44121 17.3411 3.43288C17.336 3.42457 17.3139 3.41776 17.2921 3.41776C17.2702 3.41776 17.2477 3.41026 17.242 3.40108C17.2363 3.3919 17.2138 3.3844 17.192 3.3844C17.1701 3.3844 17.1478 3.37724 17.1424 3.36848C17.137 3.35974 17.0877 3.34751 17.033 3.3413C16.9782 3.33511 16.9334 3.3235 16.9334 3.31551C16.9334 3.30752 16.915 3.30098 16.8926 3.30098C16.8702 3.30098 16.8473 3.29347 16.8416 3.28429C16.8359 3.27512 16.8096 3.26761 16.7832 3.26761C16.7568 3.26761 16.731 3.26097 16.726 3.25284C16.721 3.24474 16.6832 3.23304 16.642 3.22687C16.6008 3.22068 16.5627 3.20855 16.5574 3.19991C16.552 3.19126 16.526 3.18419 16.4996 3.18419C16.4731 3.18419 16.4469 3.17668 16.4412 3.16751C16.4355 3.15833 16.4092 3.15082 16.3828 3.15082C16.3563 3.15082 16.3301 3.14332 16.3244 3.13414C16.3187 3.12496 16.2962 3.11746 16.2743 3.11746C16.2525 3.11746 16.2303 3.11046 16.225 3.10194C16.2197 3.0934 16.1742 3.08127 16.1237 3.07496C16.0733 3.06866 16.0279 3.05688 16.0229 3.04877C16.0179 3.04066 15.9959 3.03404 15.974 3.03404C15.9522 3.03404 15.9297 3.02653 15.924 3.01735C15.9183 3.00818 15.8954 3.00067 15.873 3.00067C15.8505 3.00067 15.8322 2.99421 15.8322 2.9863C15.8322 2.97841 15.7934 2.96735 15.7459 2.96173C15.6984 2.95611 15.6519 2.94379 15.6425 2.93438C15.6331 2.92496 15.6085 2.91725 15.588 2.91725C15.5674 2.91725 15.5459 2.90974 15.5403 2.90057C15.5346 2.89139 15.5083 2.88388 15.4819 2.88388C15.4554 2.88388 15.4291 2.87637 15.4235 2.8672C15.4178 2.85802 15.3987 2.85051 15.3811 2.85051C15.3635 2.85051 15.2932 2.83174 15.2248 2.8088C15.1565 2.78586 15.0849 2.76709 15.0658 2.76709C15.0466 2.76709 15.016 2.75959 14.9978 2.75041C14.9796 2.74123 14.9503 2.72657 14.9327 2.71781C14.9152 2.70905 14.8625 2.69681 14.8156 2.69058C14.7687 2.68436 14.7263 2.67276 14.7214 2.66479C14.7165 2.65683 14.6978 2.65031 14.6798 2.65031C14.6619 2.65031 14.6342 2.64372 14.6182 2.63568C14.5748 2.61372 14.4808 2.58691 14.4058 2.57503C14.3424 2.56504 14.2917 2.54799 14.2266 2.51488C14.2107 2.50678 14.183 2.50015 14.1651 2.50015C14.1471 2.50015 14.1283 2.49353 14.1233 2.48542C14.1183 2.47731 14.073 2.46553 14.0225 2.45923C13.9721 2.45292 13.9265 2.44079 13.9212 2.43225C13.9159 2.42372 13.8933 2.41673 13.8709 2.41673C13.8485 2.41673 13.8302 2.40923 13.8302 2.40005C13.8302 2.39087 13.8075 2.38337 13.7799 2.38337C13.7522 2.38337 13.7147 2.37586 13.6965 2.36668C13.6782 2.35751 13.6499 2.34341 13.6335 2.33537C13.617 2.32731 13.5645 2.31535 13.5167 2.30877C13.4689 2.3022 13.4256 2.29002 13.4204 2.28169C13.4153 2.27339 13.3895 2.26658 13.363 2.26658C13.3366 2.26658 13.3103 2.25907 13.3046 2.24989C13.299 2.24072 13.2764 2.23321 13.2546 2.23321C13.2327 2.23321 13.2105 2.22614 13.2051 2.21749C13.1998 2.20885 13.1599 2.19707 13.1165 2.19132C13.0427 2.18152 12.9946 2.16641 12.9253 2.13116C12.9094 2.12305 12.8779 2.11642 12.8554 2.11642C12.8329 2.11642 12.8104 2.1099 12.8055 2.10194C12.8005 2.09397 12.7591 2.08249 12.7134 2.07643C12.6677 2.07036 12.6258 2.05811 12.6203 2.0492C12.6148 2.0403 12.5924 2.033 12.5705 2.033C12.5487 2.033 12.5262 2.0255 12.5205 2.01632C12.5148 2.00714 12.495 1.99964 12.4766 1.99964C12.4581 1.99964 12.387 1.98087 12.3187 1.95793C12.2504 1.93499 12.1721 1.91622 12.1447 1.91622C12.1174 1.91622 12.095 1.90871 12.095 1.89953C12.095 1.89036 12.0767 1.88285 12.0543 1.88285C12.0319 1.88285 12.009 1.87534 12.0033 1.86617C11.9976 1.85699 11.9751 1.84948 11.9532 1.84948C11.9314 1.84948 11.9093 1.84267 11.9041 1.83437C11.899 1.82604 11.8557 1.81386 11.8079 1.80729C11.7601 1.80072 11.7075 1.78875 11.6911 1.78069C11.6747 1.77265 11.6463 1.75855 11.6281 1.74938C11.6099 1.7402 11.5798 1.73269 11.5612 1.73269C11.5426 1.73269 11.5143 1.72557 11.4984 1.71686C11.4824 1.70815 11.4339 1.69646 11.3905 1.69087C11.3472 1.6853 11.3073 1.67363 11.302 1.66499C11.2966 1.65635 11.2744 1.64928 11.2525 1.64928C11.2307 1.64928 11.2081 1.64177 11.2025 1.63259C11.1968 1.62342 11.1705 1.61591 11.1441 1.61591C11.1176 1.61591 11.0919 1.60927 11.0869 1.60114C11.0818 1.59303 11.044 1.58134 11.0029 1.57517C10.9617 1.56898 10.9236 1.55685 10.9182 1.5482C10.9129 1.53956 10.8827 1.53249 10.8511 1.53249C10.8195 1.53249 10.7937 1.52498 10.7937 1.5158C10.7937 1.50663 10.7716 1.49912 10.7446 1.49912C10.7176 1.49912 10.6909 1.49161 10.6853 1.48244C10.6796 1.47326 10.6571 1.46575 10.6352 1.46575C10.6134 1.46575 10.5911 1.45876 10.5859 1.45024C10.5806 1.4417 10.535 1.42957 10.4846 1.42326C10.4341 1.41695 10.3888 1.40517 10.3837 1.39707C10.3787 1.38896 10.36 1.38233 10.342 1.38233C10.3241 1.38233 10.2964 1.37571 10.2804 1.3676C10.2112 1.33235 10.1631 1.31723 10.0892 1.30744C10.0458 1.30168 10.006 1.28991 10.0006 1.28126C9.99528 1.27262 9.96927 1.26555 9.94283 1.26555C9.91638 1.26555 9.89011 1.25804 9.88443 1.24886C9.87876 1.23969 9.85624 1.23218 9.83438 1.23218C9.81253 1.23218 9.79062 1.22566 9.78568 1.2177C9.78076 1.20972 9.73838 1.19813 9.69148 1.1919C9.6446 1.18568 9.59188 1.17344 9.57433 1.16468C9.55678 1.15592 9.5275 1.14125 9.50928 1.13208C9.49104 1.1229 9.45351 1.11539 9.42586 1.11539C9.3982 1.11539 9.37558 1.10788 9.37558 1.09871C9.37558 1.08953 9.35726 1.08202 9.33485 1.08202C9.31244 1.08202 9.28992 1.07522 9.28478 1.06691C9.27964 1.05858 9.23633 1.0464 9.18853 1.03983C9.14073 1.03326 9.08818 1.0213 9.07176 1.01324C9.05533 1.0052 9.02698 0.991097 9.00876 0.981921C8.99053 0.972745 8.95664 0.965237 8.93345 0.965237C8.91026 0.965237 8.87825 0.958097 8.86231 0.949354C8.78597 0.907528 8.70005 0.876112 8.65238 0.872625C8.62345 0.870523 8.58852 0.865118 8.57475 0.860613C8.56099 0.856125 8.50468 0.839358 8.44962 0.823358C8.39457 0.807341 8.33529 0.786937 8.3179 0.777978C8.26301 0.749765 8.10073 0.69913 8.06376 0.698713C8.04424 0.698479 8.01893 0.687034 8.0075 0.67327C7.99489 0.658071 7.95835 0.648244 7.91449 0.648244C7.87475 0.648244 7.82122 0.639802 7.79556 0.629475C7.7699 0.619164 7.732 0.604149 7.71136 0.596107C7.69072 0.588082 7.65692 0.574435 7.63628 0.565776C7.61565 0.557117 7.56524 0.544921 7.5243 0.538681C7.48338 0.532441 7.43833 0.52148 7.4242 0.514339C7.41009 0.507182 7.36475 0.49225 7.32346 0.481122C7.28217 0.47001 7.23337 0.454778 7.21502 0.447287C7.19666 0.439779 7.14616 0.428935 7.10278 0.423196C7.05942 0.41744 7.01957 0.405661 7.01421 0.397019C7.00887 0.388376 6.98858 0.381302 6.96913 0.381302C6.93274 0.381302 6.87041 0.364418 6.73953 0.319121C6.67448 0.296615 6.60239 0.279815 6.38479 0.236487C6.35945 0.231431 6.33459 0.220653 6.32959 0.212545C6.32457 0.20442 6.29839 0.19778 6.27139 0.19778C6.2444 0.19778 6.22233 0.19104 6.22233 0.182781C6.22233 0.174539 6.16974 0.16251 6.10547 0.15607C6.04121 0.149614 5.98445 0.137584 5.97936 0.129343C5.97427 0.121101 5.94471 0.114361 5.91368 0.114361C5.88264 0.114361 5.85308 0.107604 5.84798 0.0993452C5.84287 0.0911034 5.79926 0.0751868 5.75106 0.0640086C5.70286 0.0528137 5.63861 0.0322426 5.60828 0.0182782C5.56148 -0.00326068 5.54685 -0.00371116 5.51133 0.0152918C5.47844 0.0328932 5.46266 0.0334105 5.43755 0.0177443C5.40248 -0.00416157 5.13556 -0.00646402 5.07877 0.0146411ZM5.60973 0.731914C5.66679 0.750399 5.7254 0.772239 5.73998 0.78043C5.75456 0.788622 5.81069 0.800851 5.86469 0.807592C5.9187 0.814349 5.98592 0.832801 6.01406 0.848617C6.06582 0.87768 6.07875 0.880767 6.30857 0.918956C6.37894 0.930652 6.44212 0.945851 6.44899 0.952725C6.45585 0.959598 6.47854 0.965237 6.49941 0.965237C6.52028 0.965237 6.54199 0.972745 6.54766 0.981921C6.55334 0.991097 6.57961 0.998605 6.60606 0.998605C6.6325 0.998605 6.65824 1.00523 6.66325 1.01334C6.66825 1.02145 6.71362 1.03322 6.76407 1.03953C6.81452 1.04584 6.8601 1.05797 6.86537 1.06651C6.87065 1.07503 6.89285 1.08202 6.91471 1.08202C6.93656 1.08202 6.95909 1.08953 6.96476 1.09871C6.97043 1.10788 6.99099 1.11539 7.01044 1.11539C7.04738 1.11539 7.14505 1.1429 7.19271 1.16673C7.20796 1.17435 7.25881 1.18568 7.30569 1.1919C7.35259 1.19813 7.39497 1.20972 7.39989 1.2177C7.40483 1.22566 7.42717 1.23218 7.44958 1.23218C7.47198 1.23218 7.4903 1.23884 7.4903 1.24698C7.4903 1.26233 7.50969 1.26765 7.69051 1.30183C7.75015 1.3131 7.80271 1.32644 7.80729 1.33148C7.82733 1.35345 7.89297 1.38233 7.92286 1.38233C7.9408 1.38233 7.95985 1.38941 7.96519 1.39805C7.97054 1.40669 8.00862 1.41882 8.04981 1.42501C8.091 1.43118 8.12881 1.44288 8.13381 1.45099C8.13883 1.45911 8.16082 1.46575 8.18268 1.46575C8.20454 1.46575 8.22706 1.47326 8.23273 1.48244C8.2384 1.49161 8.26148 1.49912 8.284 1.49912C8.30652 1.49912 8.33799 1.50599 8.35392 1.5144C8.44111 1.5604 8.51202 1.58254 8.57211 1.58254C8.60919 1.58254 8.64416 1.59005 8.64983 1.59922C8.6555 1.6084 8.68221 1.61591 8.70921 1.61591C8.7362 1.61591 8.75827 1.62342 8.75827 1.63259C8.75827 1.64177 8.77659 1.64928 8.799 1.64928C8.8214 1.64928 8.84383 1.6559 8.84883 1.66401C8.85384 1.67212 8.8992 1.68389 8.94965 1.6902C9.00011 1.69651 9.04569 1.70864 9.05096 1.71718C9.05623 1.7257 9.07887 1.73269 9.10128 1.73269C9.12368 1.73269 9.142 1.7402 9.142 1.74938C9.142 1.75855 9.16783 1.76606 9.19941 1.76606C9.23099 1.76606 9.26146 1.77357 9.26713 1.78275C9.2728 1.79192 9.29389 1.7994 9.314 1.79935C9.34576 1.79928 9.43831 1.82537 9.55076 1.86613C9.62203 1.89196 9.70356 1.91468 9.76366 1.92544C9.79818 1.93163 9.83053 1.94335 9.83555 1.95147C9.84057 1.95961 9.87008 1.96627 9.90112 1.96627C9.93215 1.96627 9.96218 1.97378 9.96785 1.98295C9.97353 1.99213 9.99605 1.99964 10.0179 1.99964C10.0398 1.99964 10.0617 2.00624 10.0667 2.01434C10.0717 2.02241 10.0928 2.03324 10.1136 2.03839C10.1344 2.04355 10.2002 2.05998 10.2598 2.07493C10.3195 2.08986 10.389 2.10618 10.4143 2.11119C10.4397 2.11617 10.4645 2.12692 10.4696 2.13503C10.4746 2.14315 10.497 2.14979 10.5194 2.14979C10.5418 2.14979 10.5601 2.15625 10.5601 2.16416C10.5601 2.17205 10.599 2.18311 10.6464 2.18873C10.6939 2.19435 10.7405 2.20667 10.7499 2.21608C10.7593 2.2255 10.7838 2.23321 10.8044 2.23321C10.825 2.23321 10.8464 2.24072 10.8521 2.24989C10.8578 2.25907 10.884 2.26658 10.9105 2.26658C10.9369 2.26658 10.9627 2.2732 10.9677 2.28131C10.9727 2.28942 11.0181 2.3012 11.0685 2.3075C11.119 2.31381 11.1645 2.32594 11.1698 2.33448C11.1751 2.34301 11.1977 2.35 11.2201 2.35C11.2425 2.35 11.2609 2.35751 11.2609 2.36668C11.2609 2.37586 11.2871 2.38337 11.3192 2.38337C11.3514 2.38337 11.3776 2.39087 11.3776 2.40005C11.3776 2.40923 11.396 2.41673 11.4184 2.41673C11.4408 2.41673 11.4634 2.42372 11.4687 2.43225C11.474 2.44079 11.5195 2.45292 11.57 2.45923C11.6204 2.46553 11.6658 2.47731 11.6708 2.48542C11.6758 2.49353 11.7016 2.50015 11.728 2.50015C11.7544 2.50015 11.7807 2.50766 11.7864 2.51684C11.7921 2.52601 11.8138 2.53352 11.8346 2.53352C11.8555 2.53352 11.8782 2.53914 11.8851 2.54602C11.8985 2.55945 12.0356 2.59707 12.1242 2.61167C12.1541 2.61657 12.1785 2.62643 12.1785 2.63356C12.1785 2.64068 12.1991 2.65051 12.2243 2.6554C12.3264 2.67513 12.4213 2.70316 12.4362 2.71799C12.445 2.72665 12.4707 2.73373 12.4934 2.73373C12.5314 2.73373 12.6037 2.75261 12.6873 2.78441C12.7779 2.81885 12.8271 2.83276 12.8952 2.84322C12.9362 2.8495 12.9812 2.86086 12.9953 2.86847C13.0423 2.89376 13.2202 2.94781 13.2956 2.95969C13.3366 2.96615 13.3835 2.97801 13.3999 2.98605C13.4163 2.99409 13.4447 3.00818 13.4629 3.01735C13.4811 3.02653 13.5187 3.03404 13.5463 3.03404C13.574 3.03404 13.5966 3.04084 13.5966 3.04915C13.5966 3.05748 13.6341 3.06944 13.68 3.07575C13.7259 3.08205 13.7676 3.09401 13.7727 3.10234C13.7779 3.11065 13.8 3.11746 13.8218 3.11746C13.8437 3.11746 13.8662 3.12496 13.8719 3.13414C13.8775 3.14332 13.9029 3.15082 13.9281 3.15082C13.9534 3.15082 14.0036 3.1651 14.0397 3.18256C14.0759 3.20001 14.143 3.21929 14.1889 3.2254C14.2669 3.23581 14.3148 3.25069 14.3847 3.28625C14.4006 3.29435 14.4283 3.30098 14.4462 3.30098C14.4642 3.30098 14.4831 3.30778 14.4882 3.31609C14.4933 3.32442 14.5367 3.3366 14.5845 3.34317C14.6323 3.34974 14.6867 3.36287 14.7054 3.37237C14.7241 3.38184 14.7525 3.39594 14.7684 3.40368C14.7843 3.41143 14.82 3.41776 14.8476 3.41776C14.8753 3.41776 14.8979 3.4243 14.8979 3.4323C14.8979 3.44029 14.9352 3.45177 14.9807 3.45781C15.0262 3.46385 15.0679 3.47607 15.0734 3.48498C15.0789 3.49389 15.1051 3.50118 15.1315 3.50118C15.1579 3.50118 15.1842 3.50869 15.1899 3.51787C15.1956 3.52704 15.2218 3.53455 15.2483 3.53455C15.2747 3.53455 15.301 3.54206 15.3067 3.55124C15.3124 3.56041 15.3338 3.56792 15.3544 3.56792C15.375 3.56792 15.3995 3.57563 15.4089 3.58505C15.4183 3.59446 15.4649 3.60678 15.5123 3.6124C15.5598 3.61802 15.5987 3.62908 15.5987 3.63697C15.5987 3.64488 15.617 3.65134 15.6394 3.65134C15.6618 3.65134 15.6847 3.65885 15.6904 3.66802C15.6961 3.6772 15.719 3.68471 15.7414 3.68471C15.7639 3.68471 15.7822 3.69125 15.7822 3.69924C15.7822 3.70723 15.827 3.71884 15.8818 3.72503C15.9365 3.73124 15.9858 3.74347 15.9912 3.75221C15.9966 3.76097 16.0195 3.76813 16.042 3.76813C16.0645 3.76813 16.096 3.77472 16.1119 3.78276C16.1524 3.80321 16.2461 3.83077 16.3204 3.84409C16.3549 3.85028 16.3873 3.86199 16.3923 3.87011C16.3973 3.87826 16.4193 3.88491 16.4412 3.88491C16.463 3.88491 16.4856 3.89242 16.4912 3.9016C16.4969 3.91077 16.5232 3.91828 16.5496 3.91828C16.5761 3.91828 16.6024 3.92579 16.608 3.93496C16.6137 3.94414 16.6367 3.95165 16.6591 3.95165C16.6815 3.95165 16.6998 3.95811 16.6998 3.96601C16.6998 3.9739 16.7386 3.98497 16.7861 3.99059C16.8336 3.99621 16.8801 4.00852 16.8895 4.01793C16.899 4.02736 16.9272 4.03507 16.9524 4.03507C16.9776 4.03507 17.0028 4.04258 17.0084 4.05175C17.0141 4.06093 17.0366 4.06844 17.0585 4.06844C17.0803 4.06844 17.1023 4.07506 17.1073 4.08317C17.1123 4.09128 17.1577 4.10305 17.2082 4.10936C17.2586 4.11567 17.3042 4.1278 17.3095 4.13634C17.3147 4.14486 17.3374 4.15185 17.3598 4.15185C17.3822 4.15185 17.4005 4.15851 17.4005 4.16665C17.4005 4.18152 17.417 4.18611 17.5826 4.21719C17.6323 4.22651 17.6807 4.2419 17.6902 4.25139C17.6997 4.26088 17.7281 4.26864 17.7532 4.26864C17.7784 4.26864 17.8036 4.27615 17.8093 4.28533C17.8149 4.2945 17.8454 4.30201 17.877 4.30201C17.9086 4.30201 17.9344 4.30952 17.9344 4.31869C17.9344 4.32787 17.9527 4.33538 17.9751 4.33538C17.9975 4.33538 18.0202 4.34237 18.0254 4.35089C18.0307 4.35944 18.0763 4.37156 18.1267 4.37787C18.1772 4.38418 18.2226 4.39596 18.2276 4.40406C18.2326 4.41217 18.255 4.4188 18.2774 4.4188C18.2998 4.4188 18.3181 4.4263 18.3181 4.43548C18.3181 4.44466 18.3364 4.45216 18.3588 4.45216C18.3813 4.45216 18.4036 4.45869 18.4085 4.46665C18.4134 4.47462 18.4533 4.486 18.4971 4.49194C18.5795 4.50313 18.6927 4.53755 18.7127 4.55752C18.7189 4.56381 18.7454 4.56895 18.7714 4.56895C18.7974 4.56895 18.8186 4.57646 18.8186 4.58563C18.8186 4.59481 18.8393 4.60229 18.8645 4.60224C18.9093 4.60215 19.0483 4.64174 19.1062 4.67107C19.1221 4.67913 19.1578 4.68574 19.1854 4.68574C19.2131 4.68574 19.2357 4.69325 19.2357 4.70242C19.2357 4.7116 19.2541 4.71911 19.2765 4.71911C19.2989 4.71911 19.3215 4.7261 19.3268 4.73462C19.332 4.74316 19.3776 4.75529 19.4281 4.7616C19.4785 4.76791 19.5239 4.77968 19.5289 4.78779C19.5339 4.7959 19.5564 4.80253 19.579 4.80253C19.6015 4.80253 19.6348 4.81003 19.6531 4.81921C19.6713 4.82838 19.701 4.8433 19.719 4.85236C19.737 4.86142 19.7933 4.87371 19.8441 4.87969C19.8949 4.88566 19.9365 4.89701 19.9365 4.90493C19.9365 4.91284 19.9515 4.91931 19.9698 4.91931C19.9882 4.91931 20.0032 4.92682 20.0032 4.936C20.0032 4.94517 20.0328 4.95268 20.0689 4.95268C20.1051 4.95268 20.1393 4.96019 20.145 4.96936C20.1507 4.97854 20.1732 4.98605 20.1951 4.98605C20.2169 4.98605 20.239 4.99285 20.2441 5.00116C20.2493 5.00949 20.2929 5.02158 20.3411 5.02806C20.3892 5.03453 20.4369 5.04649 20.447 5.05463C20.4571 5.06276 20.5021 5.07409 20.5471 5.07978C20.6613 5.09426 20.7039 5.12442 20.7039 5.19081C20.7039 5.24925 20.6284 5.33547 20.5246 5.39562C20.4947 5.41289 20.4703 5.43291 20.4703 5.44012C20.4703 5.44731 20.4627 5.4532 20.4535 5.4532C20.4442 5.4532 20.3992 5.47947 20.3535 5.51159C20.3079 5.54371 20.2672 5.56998 20.2633 5.56998C20.2593 5.56998 20.1832 5.63944 20.0941 5.72431C19.9544 5.85745 19.7029 6.15934 19.7029 6.19389C19.7029 6.20023 19.6841 6.22566 19.6612 6.2504C19.6382 6.27514 19.6083 6.31882 19.5948 6.34748C19.5812 6.37613 19.5586 6.40905 19.5447 6.42061C19.5308 6.43217 19.5194 6.44896 19.5194 6.45791C19.5194 6.47645 19.4675 6.5917 19.4535 6.60438C19.4355 6.62062 19.4044 6.69684 19.3939 6.75037C19.388 6.7802 19.3763 6.80459 19.3679 6.80459C19.3594 6.80459 19.3525 6.82291 19.3525 6.84531C19.3525 6.86772 19.345 6.89068 19.3358 6.89635C19.3267 6.90202 19.3191 6.92455 19.3191 6.9464C19.3191 6.96826 19.3116 6.99078 19.3025 6.99645C19.2933 7.00212 19.2858 7.02733 19.2858 7.05249C19.2858 7.07765 19.2781 7.10593 19.2686 7.11536C19.2592 7.12477 19.2474 7.1732 19.2423 7.22297C19.2372 7.27272 19.2265 7.32846 19.2183 7.34681C19.1859 7.42007 19.1554 8.17266 19.1849 8.17266C19.1955 8.17266 19.2024 8.22148 19.2024 8.29681C19.2024 8.3651 19.2088 8.42494 19.2167 8.42981C19.2246 8.43467 19.2352 8.48479 19.2403 8.54116C19.2454 8.59754 19.2577 8.65181 19.2677 8.66177C19.2776 8.67171 19.2858 8.69667 19.2858 8.71724C19.2858 8.73781 19.2933 8.75927 19.3025 8.76494C19.3116 8.77061 19.3191 8.79209 19.3191 8.81266C19.3191 8.85582 19.3549 8.93981 19.3734 8.93999C19.3802 8.94006 19.3859 8.94876 19.3859 8.95931C19.3859 8.97926 19.4692 9.15905 19.4852 9.1737C19.4992 9.18649 19.5344 9.24485 19.551 9.28283C19.5592 9.30156 19.578 9.32687 19.5927 9.3391C19.6074 9.35131 19.6195 9.37033 19.6195 9.38138C19.6195 9.39242 19.6382 9.41908 19.6612 9.44064C19.6841 9.46219 19.7029 9.48916 19.7029 9.50055C19.7029 9.51195 19.7087 9.52377 19.7157 9.52684C19.7227 9.5299 19.7458 9.55492 19.767 9.58245C19.8295 9.66358 19.9995 9.85235 20.1798 10.0407C20.3429 10.2111 20.3753 10.2592 20.4218 10.4C20.4339 10.4367 20.4497 10.4738 20.4571 10.4825C20.4644 10.4913 20.4703 10.5292 20.4703 10.5668C20.4703 10.6044 20.4772 10.6423 20.4855 10.6511C20.4938 10.6598 20.5049 10.7044 20.51 10.7503C20.5152 10.7962 20.5265 10.8976 20.5352 10.9756C20.544 11.0536 20.5511 11.3426 20.5511 11.6179C20.551 12.0864 20.5425 12.277 20.5023 12.7107C20.4934 12.807 20.482 12.9572 20.4771 13.0444C20.4722 13.1315 20.4611 13.21 20.4525 13.2187C20.444 13.2274 20.437 13.2814 20.437 13.3387C20.437 13.3959 20.4302 13.447 20.422 13.4521C20.4138 13.4571 20.4016 13.5628 20.3949 13.6869C20.3883 13.8109 20.3763 13.9165 20.3682 13.9215C20.3601 13.9265 20.3535 13.971 20.3535 14.0204C20.3535 14.0697 20.346 14.1148 20.3369 14.1205C20.3277 14.1261 20.3202 14.1674 20.3202 14.2122C20.3202 14.257 20.3137 14.2977 20.3057 14.3026C20.2977 14.3076 20.2858 14.3943 20.2792 14.4954C20.2727 14.5964 20.2605 14.6834 20.252 14.6886C20.2436 14.6938 20.2368 14.7272 20.2368 14.7628C20.2368 14.7984 20.2293 14.8322 20.2201 14.8379C20.2109 14.8435 20.2034 14.8928 20.2034 14.9473C20.2034 15.0243 20.1978 15.0464 20.1784 15.0464C20.1646 15.0464 20.1533 15.0389 20.1533 15.0297C20.1533 15.0206 20.1308 15.013 20.1033 15.013C20.0758 15.013 20.0532 15.0064 20.0532 14.9982C20.0532 14.9824 20.0251 14.9748 19.8489 14.9431C19.7869 14.9319 19.7362 14.9168 19.7362 14.9095C19.7362 14.9022 19.7179 14.8963 19.6955 14.8963C19.6731 14.8963 19.6502 14.8888 19.6445 14.8796C19.6388 14.8704 19.6159 14.8629 19.5934 14.8629C19.571 14.8629 19.5527 14.8564 19.5527 14.8485C19.5527 14.8406 19.5139 14.8296 19.4664 14.824C19.4189 14.8183 19.3724 14.806 19.363 14.7966C19.3536 14.7872 19.329 14.7795 19.3085 14.7795C19.2879 14.7795 19.2664 14.772 19.2608 14.7628C19.2551 14.7536 19.2288 14.7461 19.2024 14.7461C19.1759 14.7461 19.1496 14.7386 19.144 14.7294C19.1383 14.7202 19.1179 14.7127 19.0986 14.7127C19.0594 14.7127 18.8928 14.6672 18.8481 14.6442C18.8321 14.636 18.8007 14.6293 18.7781 14.6293C18.7556 14.6293 18.7325 14.6218 18.7269 14.6126C18.7212 14.6035 18.6982 14.596 18.6758 14.596C18.6534 14.596 18.6351 14.5893 18.6351 14.5812C18.6351 14.5731 18.5919 14.561 18.5392 14.5545C18.4864 14.5479 18.4137 14.5283 18.3775 14.5108C18.3414 14.4934 18.2949 14.4792 18.2743 14.4792C18.2536 14.4792 18.2326 14.4725 18.2276 14.4644C18.2226 14.4563 18.1772 14.4445 18.1267 14.4382C18.0763 14.4319 18.0307 14.4198 18.0254 14.4113C18.0202 14.4027 17.9975 14.3957 17.9751 14.3957C17.9527 14.3957 17.9344 14.3882 17.9344 14.3791C17.9344 14.3699 17.9086 14.3624 17.877 14.3624C17.8454 14.3624 17.8155 14.3557 17.8104 14.3476C17.8054 14.3395 17.7676 14.3278 17.7264 14.3216C17.6852 14.3154 17.6472 14.3033 17.6418 14.2947C17.6365 14.286 17.6105 14.279 17.584 14.279C17.5576 14.279 17.5313 14.2714 17.5256 14.2623C17.52 14.2531 17.4895 14.2456 17.4579 14.2456C17.4263 14.2456 17.4005 14.2381 17.4005 14.2289C17.4005 14.2197 17.3822 14.2122 17.3598 14.2122C17.3374 14.2122 17.3147 14.2051 17.3093 14.1965C17.304 14.1879 17.2641 14.1761 17.2208 14.1703C17.1469 14.1605 17.0988 14.1454 17.0295 14.1102C17.0136 14.1021 16.9821 14.0954 16.9596 14.0954C16.9371 14.0954 16.9144 14.0886 16.9093 14.0803C16.9042 14.072 16.8624 14.06 16.8166 14.0537C16.7707 14.0474 16.729 14.0355 16.7238 14.0271C16.7187 14.0188 16.6929 14.012 16.6664 14.012C16.64 14.012 16.6137 14.0045 16.608 13.9953C16.6024 13.9862 16.5798 13.9786 16.558 13.9786C16.5361 13.9786 16.5136 13.9711 16.5079 13.962C16.5022 13.9528 16.4774 13.9452 16.4527 13.9452C16.428 13.9451 16.3863 13.9339 16.36 13.9202C16.3337 13.9064 16.291 13.8952 16.2651 13.8952C16.2391 13.8952 16.2133 13.8877 16.2076 13.8785C16.2019 13.8694 16.1794 13.8619 16.1576 13.8619C16.1357 13.8619 16.1132 13.8544 16.1075 13.8452C16.1018 13.836 16.0793 13.8285 16.0575 13.8285C16.0356 13.8285 16.0137 13.822 16.0088 13.814C16.0038 13.806 15.9618 13.7945 15.9153 13.7883C15.8689 13.7822 15.8105 13.769 15.7857 13.759C15.632 13.6975 15.5833 13.6824 15.502 13.671C15.4626 13.6655 15.4138 13.6525 15.3935 13.6421C15.3114 13.5997 15.2968 13.5949 15.2495 13.5949C15.2224 13.5949 15.1956 13.5874 15.1899 13.5782C15.1842 13.5691 15.1594 13.5615 15.1347 13.5615C15.11 13.5614 15.0683 13.5501 15.042 13.5364C15.0157 13.5227 14.9726 13.5115 14.9461 13.5115C14.9196 13.5115 14.8979 13.504 14.8979 13.4948C14.8979 13.4856 14.8721 13.4781 14.8405 13.4781C14.8089 13.4781 14.7785 13.4706 14.7728 13.4614C14.7671 13.4523 14.7442 13.4448 14.7218 13.4448C14.6994 13.4448 14.681 13.4378 14.681 13.4293C14.681 13.4208 14.6396 13.4086 14.5891 13.4023C14.5385 13.396 14.493 13.3842 14.488 13.3761C14.483 13.368 14.4642 13.3613 14.4462 13.3613C14.4283 13.3613 14.4006 13.3548 14.3847 13.3467C14.3346 13.3214 14.2403 13.2953 14.1584 13.2841C14.115 13.2781 14.0755 13.2668 14.0706 13.2589C14.0658 13.251 14.0434 13.2446 14.021 13.2446C13.9986 13.2446 13.9803 13.237 13.9803 13.2279C13.9803 13.2187 13.962 13.2112 13.9396 13.2112C13.9172 13.2112 13.8948 13.2047 13.8899 13.1967C13.885 13.1887 13.8426 13.1771 13.7957 13.1709C13.7488 13.1647 13.698 13.1534 13.6827 13.1457C13.6351 13.1219 13.5374 13.0944 13.5005 13.0944C13.481 13.0944 13.4604 13.0869 13.4548 13.0777C13.4491 13.0685 13.4266 13.061 13.4047 13.061C13.3829 13.061 13.3605 13.0537 13.355 13.0448C13.3495 13.0359 13.3076 13.0237 13.2618 13.0176C13.2161 13.0116 13.1747 13.0001 13.1698 12.9921C13.1649 12.9841 13.1388 12.9776 13.1118 12.9776C13.0848 12.9776 13.0627 12.9701 13.0627 12.9609C13.0627 12.9518 13.0444 12.9442 13.022 12.9442C12.9996 12.9442 12.9773 12.9378 12.9724 12.9299C12.9675 12.922 12.9301 12.911 12.8893 12.9054C12.7948 12.8924 12.679 12.8565 12.679 12.8401C12.679 12.8331 12.6532 12.8275 12.6216 12.8275C12.59 12.8275 12.5601 12.8208 12.5551 12.8127C12.55 12.8046 12.5045 12.7928 12.454 12.7865C12.4034 12.7802 12.362 12.768 12.362 12.7595C12.362 12.751 12.3437 12.744 12.3213 12.744C12.2989 12.744 12.2759 12.7365 12.2702 12.7274C12.2646 12.7182 12.2383 12.7107 12.2118 12.7107C12.1854 12.7107 12.1591 12.7032 12.1534 12.694C12.1478 12.6848 12.1252 12.6773 12.1034 12.6773C12.0815 12.6773 12.0595 12.6707 12.0545 12.6626C12.0495 12.6545 12.0042 12.6427 11.9537 12.6364C11.9033 12.6301 11.8577 12.6179 11.8524 12.6094C11.8471 12.6009 11.8212 12.5939 11.7947 12.5939C11.7683 12.5939 11.742 12.5864 11.7363 12.5772C11.7307 12.568 11.7081 12.5605 11.6863 12.5605C11.6644 12.5605 11.6424 12.5539 11.6374 12.5458C11.6324 12.5377 11.5869 12.5259 11.5364 12.5196C11.4858 12.5132 11.4444 12.5011 11.4444 12.4926C11.4444 12.4841 11.4261 12.4771 11.4036 12.4771C11.3812 12.4771 11.3583 12.4696 11.3526 12.4604C11.3469 12.4512 11.3207 12.4437 11.2942 12.4437C11.2678 12.4437 11.242 12.4371 11.237 12.429C11.232 12.4209 11.1942 12.4092 11.153 12.403C11.1118 12.3968 11.0737 12.3847 11.0684 12.376C11.063 12.3674 11.0333 12.3603 11.0023 12.3603C10.9712 12.3603 10.9412 12.3528 10.9355 12.3436C10.9298 12.3345 10.9073 12.3269 10.8855 12.3269C10.8636 12.3269 10.8411 12.3194 10.8354 12.3103C10.8297 12.3011 10.803 12.2936 10.776 12.2936C10.749 12.2936 10.727 12.2866 10.727 12.2781C10.727 12.2696 10.6856 12.2574 10.635 12.2511C10.5844 12.2448 10.5389 12.233 10.5339 12.2249C10.5289 12.2168 10.5069 12.2102 10.4851 12.2102C10.4632 12.2102 10.4407 12.2027 10.435 12.1935C10.4293 12.1843 10.4068 12.1768 10.3849 12.1768C10.3631 12.1768 10.3412 12.1703 10.3362 12.1623C10.3313 12.1543 10.2884 12.1427 10.2408 12.1363C10.1932 12.13 10.124 12.1103 10.0871 12.0924C10.0502 12.0746 10.0031 12.06 9.98238 12.06C9.96171 12.06 9.94069 12.0534 9.93569 12.0453C9.93068 12.0372 9.88532 12.0254 9.83486 12.0191C9.78441 12.0128 9.73883 12.0006 9.73356 11.9921C9.72829 11.9836 9.70565 11.9766 9.68324 11.9766C9.66084 11.9766 9.64252 11.9691 9.64252 11.9599C9.64252 11.9507 9.6274 11.9432 9.60892 11.9432C9.59045 11.9432 9.56228 11.9361 9.54635 11.9274C9.53042 11.9186 9.47434 11.9068 9.42172 11.9012C9.3691 11.8955 9.32174 11.8839 9.31646 11.8753C9.31119 11.8668 9.28844 11.8598 9.26591 11.8598C9.24339 11.8598 9.21192 11.853 9.19599 11.8447C9.14923 11.8204 8.89226 11.743 8.85821 11.743C8.84102 11.743 8.82234 11.7355 8.81667 11.7263C8.81099 11.7172 8.78804 11.7096 8.76563 11.7096C8.74322 11.7096 8.72491 11.704 8.72491 11.697C8.72491 11.6823 8.62907 11.6377 8.59155 11.6349C8.5774 11.6338 8.5547 11.626 8.54108 11.6175C8.52749 11.6091 8.47623 11.6008 8.4272 11.5992C8.37816 11.5977 8.32973 11.5881 8.31959 11.5779C8.30944 11.5678 8.28056 11.5595 8.25541 11.5595C8.23025 11.5595 8.20557 11.5528 8.20055 11.5447C8.19554 11.5366 8.15774 11.5249 8.11655 11.5187C8.07535 11.5126 8.03728 11.5004 8.03193 11.4918C8.02659 11.4831 8.00058 11.4761 7.97413 11.4761C7.94769 11.4761 7.92141 11.4686 7.91574 11.4594C7.91007 11.4502 7.88335 11.4427 7.85636 11.4427C7.82937 11.4427 7.80729 11.4352 7.80729 11.426C7.80729 11.4168 7.79003 11.4093 7.76892 11.4093C7.74782 11.4093 7.72309 11.4019 7.71396 11.3927C7.70485 11.3836 7.6508 11.3713 7.59384 11.3654C7.5369 11.3594 7.4903 11.3481 7.4903 11.3402C7.4903 11.3324 7.47198 11.3259 7.44958 11.3259C7.42717 11.3259 7.40421 11.3184 7.39854 11.3092C7.39287 11.3001 7.36991 11.2925 7.3475 11.2925C7.3251 11.2925 7.30678 11.2861 7.30678 11.2782C7.30678 11.2703 7.26981 11.2594 7.22463 11.2541C7.17945 11.2488 7.12878 11.2372 7.11201 11.2284C7.09526 11.2196 7.04776 11.2034 7.00647 11.1924C6.96518 11.1815 6.91983 11.1667 6.9057 11.1595C6.89157 11.1523 6.8409 11.1411 6.7931 11.1345C6.7453 11.128 6.70199 11.1158 6.69685 11.1075C6.69171 11.0991 6.66962 11.0923 6.64777 11.0923C6.62591 11.0923 6.60339 11.0848 6.59771 11.0757C6.59204 11.0665 6.56897 11.059 6.54644 11.059C6.52392 11.059 6.49246 11.0522 6.47652 11.0438C6.43817 11.0238 6.2748 10.9756 6.24522 10.9756C6.23237 10.9756 6.20883 10.9688 6.1929 10.9605C6.17696 10.9522 6.13015 10.9363 6.08886 10.9252C6.04756 10.9141 5.99876 10.8988 5.98041 10.8912C5.96206 10.8836 5.91521 10.8725 5.87629 10.8666C5.83738 10.8607 5.7758 10.8415 5.73945 10.824C5.70311 10.8064 5.65092 10.792 5.62349 10.792C5.59607 10.792 5.56926 10.785 5.56392 10.7763C5.55856 10.7677 5.52049 10.7555 5.4793 10.7494C5.4381 10.7432 5.4003 10.7315 5.39529 10.7234C5.39027 10.7153 5.36453 10.7086 5.33808 10.7086C5.31164 10.7086 5.28536 10.7011 5.27969 10.6919C5.27402 10.6828 5.24355 10.6752 5.21197 10.6752C5.18039 10.6752 5.15456 10.6677 5.15456 10.6586C5.15456 10.6494 5.13624 10.6419 5.11384 10.6419C5.09143 10.6419 5.06874 10.6348 5.0634 10.6262C5.05805 10.6175 5.01819 10.6059 4.97483 10.6003C4.93145 10.5947 4.88293 10.583 4.867 10.5743C4.85107 10.5656 4.8229 10.5585 4.80443 10.5585C4.78595 10.5585 4.77083 10.5509 4.77083 10.5418C4.77083 10.5326 4.75617 10.5251 4.73825 10.5251C4.72033 10.5251 4.68841 10.5184 4.66734 10.5102C4.64627 10.502 4.58211 10.4813 4.52475 10.4643C4.4674 10.4473 4.42047 10.4277 4.42047 10.4208C4.42047 10.4139 4.40536 10.4083 4.38687 10.4083C4.30625 10.4083 4.18258 10.2988 4.12727 10.1784C4.08469 10.0857 4.07552 10.0168 4.10348 9.99955C4.11266 9.99387 4.12016 9.95634 4.12016 9.91613C4.12016 9.87592 4.12767 9.83838 4.13685 9.83271C4.14602 9.82704 4.15353 9.77824 4.15353 9.72426C4.15353 9.67029 4.16104 9.62149 4.17021 9.61582C4.17939 9.61015 4.1869 9.56992 4.1869 9.52641C4.1869 9.4829 4.19427 9.43994 4.2033 9.43091C4.21232 9.42189 4.22474 9.32627 4.23091 9.21841C4.23707 9.11056 4.24844 9.0184 4.2562 9.01361C4.26398 9.00881 4.27032 8.96555 4.27032 8.91745C4.27032 8.86935 4.27719 8.82289 4.2856 8.81416C4.30177 8.79738 4.30485 8.77081 4.34539 8.29779C4.35954 8.13262 4.379 7.93367 4.38862 7.85567C4.39825 7.77767 4.40946 7.59749 4.41353 7.45526C4.4176 7.31303 4.42905 7.18081 4.43897 7.16142C4.45074 7.13845 4.45324 7.06299 4.44618 6.94453C4.43272 6.71832 4.43272 6.58356 4.44622 6.33142C4.45337 6.19753 4.45092 6.12764 4.43864 6.11536C4.42865 6.10537 4.42047 6.04389 4.42047 5.97874C4.42047 5.9107 4.41218 5.85199 4.401 5.84081C4.38615 5.82596 4.38755 5.81902 4.40687 5.81161C4.42301 5.80541 4.42948 5.78764 4.42471 5.76266C4.41889 5.73222 4.43836 5.70212 4.5116 5.62829C4.68024 5.4583 4.78481 5.39165 4.81254 5.43651C4.81821 5.44569 4.84449 5.4532 4.87094 5.4532C4.89738 5.4532 4.92366 5.4607 4.92933 5.46988C4.935 5.47906 4.95335 5.48656 4.9701 5.48656C5.00534 5.48656 5.16589 5.53253 5.20855 5.55483C5.22448 5.56318 5.25123 5.56998 5.26799 5.56998C5.28475 5.56998 5.32801 5.58426 5.36414 5.60172C5.40028 5.61917 5.4656 5.6388 5.50929 5.64534C5.553 5.6519 5.59286 5.6639 5.59787 5.672C5.60289 5.68013 5.62531 5.68677 5.64772 5.68677C5.67013 5.68677 5.68844 5.69428 5.68844 5.70345C5.68844 5.71263 5.71052 5.72014 5.73751 5.72014C5.76451 5.72014 5.79078 5.72694 5.79592 5.73525C5.80106 5.74358 5.84279 5.75554 5.88865 5.76185C5.93451 5.76815 5.97624 5.78012 5.98138 5.78844C5.98652 5.79675 6.00904 5.80356 6.03145 5.80356C6.05385 5.80356 6.07217 5.81106 6.07217 5.82024C6.07217 5.82942 6.098 5.83692 6.12958 5.83692C6.16116 5.83692 6.19136 5.844 6.1967 5.85264C6.20206 5.86128 6.24013 5.87341 6.28132 5.8796C6.32251 5.88577 6.36032 5.89747 6.36532 5.90558C6.37035 5.9137 6.39609 5.92034 6.42253 5.92034C6.44898 5.92034 6.47525 5.92785 6.48093 5.93703C6.4866 5.9462 6.50592 5.95371 6.52385 5.95371C6.54179 5.95371 6.57137 5.96122 6.58961 5.9704C6.60782 5.97957 6.63711 5.99424 6.65466 6.003C6.67221 6.01175 6.72493 6.024 6.77181 6.03022C6.81871 6.03645 6.86109 6.04804 6.86601 6.05602C6.87095 6.06398 6.89329 6.0705 6.91569 6.0705C6.9381 6.0705 6.95642 6.07801 6.95642 6.08718C6.95642 6.09636 6.97474 6.10387 6.99714 6.10387C7.01955 6.10387 7.04197 6.11049 7.04698 6.1186C7.05198 6.12671 7.09735 6.13849 7.1478 6.14479C7.19825 6.1511 7.24383 6.16323 7.2491 6.17177C7.25437 6.1803 7.27701 6.18729 7.29942 6.18729C7.32183 6.18729 7.34015 6.19479 7.34015 6.20397C7.34015 6.21315 7.36642 6.22065 7.39854 6.22065C7.43066 6.22065 7.45693 6.22746 7.45693 6.23577C7.45693 6.24409 7.49446 6.25606 7.54034 6.26236C7.5862 6.26867 7.62794 6.28063 7.63308 6.28896C7.63822 6.29727 7.66074 6.30407 7.68315 6.30407C7.70556 6.30407 7.72387 6.31158 7.72387 6.32076C7.72387 6.32993 7.7465 6.33744 7.77416 6.33744C7.8018 6.33744 7.83934 6.34495 7.85758 6.35412C7.8758 6.3633 7.90414 6.37738 7.92054 6.38542C7.93696 6.39346 7.98389 6.40516 8.02482 6.4114C8.09467 6.42204 8.14307 6.43798 8.21164 6.47286C8.22758 6.48097 8.25424 6.48759 8.27087 6.48759C8.28752 6.48759 8.3103 6.49675 8.32149 6.50795C8.33507 6.52153 8.40528 6.52847 8.53234 6.5288L8.72282 6.5293L8.78226 6.47181C8.81495 6.44018 8.84169 6.40453 8.84169 6.39256C8.84169 6.3806 8.8492 6.37081 8.85838 6.37081C8.86755 6.37081 8.87506 6.34819 8.87506 6.32052C8.87506 6.29288 8.88425 6.25552 8.8955 6.23752C8.91163 6.21171 8.91163 6.2005 8.8955 6.18437C8.88425 6.17312 8.87506 6.14087 8.87506 6.11268C8.87506 6.03706 8.75642 5.9136 8.65817 5.88698C8.58137 5.86615 8.5221 5.84443 8.47071 5.81829C8.45478 5.81018 8.42331 5.80356 8.40079 5.80356C8.37827 5.80356 8.35573 5.79692 8.3507 5.78879C8.3457 5.78068 8.30661 5.76879 8.26385 5.76238C8.2211 5.75597 8.1722 5.74385 8.1552 5.73544C8.1382 5.72703 8.10937 5.71263 8.09115 5.70345C8.07292 5.69428 8.03538 5.68677 8.00773 5.68677C7.98007 5.68677 7.95745 5.68011 7.95745 5.67199C7.95745 5.66385 7.92256 5.65197 7.87992 5.64556C7.83727 5.63917 7.78847 5.62706 7.77147 5.61865C7.75447 5.61024 7.72564 5.59584 7.70742 5.58667C7.68919 5.57749 7.65165 5.56998 7.624 5.56998C7.59634 5.56998 7.57372 5.56247 7.57372 5.5533C7.57372 5.54412 7.5554 5.53661 7.53299 5.53661C7.51059 5.53661 7.48795 5.52962 7.48268 5.5211C7.4774 5.51256 7.43182 5.50043 7.38137 5.49412C7.33092 5.48781 7.28556 5.47604 7.28055 5.46793C7.27555 5.45982 7.25312 5.4532 7.23072 5.4532C7.20831 5.4532 7.18999 5.44569 7.18999 5.43651C7.18999 5.42734 7.17167 5.41983 7.14927 5.41983C7.12686 5.41983 7.10452 5.4133 7.09958 5.40535C7.09466 5.39737 7.05228 5.38578 7.00538 5.37955C6.9585 5.37333 6.90578 5.36108 6.88823 5.35232C6.87068 5.34357 6.8414 5.3289 6.82318 5.31972C6.80494 5.31055 6.77536 5.30304 6.75743 5.30304C6.73949 5.30304 6.72079 5.29652 6.71585 5.28856C6.71093 5.28058 6.66855 5.26899 6.62166 5.26277C6.57477 5.25654 6.52017 5.24311 6.50033 5.23294C6.41931 5.19134 6.40458 5.18625 6.36536 5.18625C6.34284 5.18625 6.3203 5.17961 6.31527 5.17149C6.31027 5.16338 6.27118 5.15148 6.22842 5.14508C6.18567 5.13867 6.13677 5.12654 6.11977 5.11813C6.10277 5.10972 6.07394 5.09533 6.05572 5.08615C6.03749 5.07697 5.99995 5.06947 5.9723 5.06947C5.94464 5.06947 5.92202 5.06196 5.92202 5.05278C5.92202 5.04361 5.9037 5.0361 5.88129 5.0361C5.85889 5.0361 5.83636 5.02929 5.83123 5.02098C5.82609 5.01266 5.78278 5.00048 5.73498 4.99391C5.68718 4.98733 5.63275 4.9742 5.61403 4.96471C5.53459 4.92447 5.52045 4.91931 5.48946 4.91931C5.47152 4.91931 5.45282 4.91279 5.44788 4.90483C5.44296 4.89686 5.40058 4.88526 5.35368 4.87904C5.3068 4.87281 5.2522 4.85938 5.23236 4.84921C5.15134 4.80761 5.13661 4.80253 5.09739 4.80253C5.07486 4.80253 5.05232 4.79588 5.0473 4.78776C5.0423 4.77965 5.00321 4.76776 4.96044 4.76135C4.9177 4.75494 4.8688 4.74281 4.8518 4.7344C4.8348 4.726 4.80597 4.7116 4.78775 4.70242C4.76951 4.69325 4.73198 4.68574 4.70433 4.68574C4.67667 4.68574 4.65405 4.68007 4.65405 4.67312C4.65405 4.65224 4.56792 4.62246 4.47167 4.61004C4.42184 4.60362 4.35592 4.58423 4.32519 4.56697C4.29444 4.54971 4.2512 4.53558 4.22909 4.53558C4.20697 4.53558 4.18423 4.52808 4.17856 4.5189C4.17288 4.50972 4.15151 4.50222 4.13106 4.50222C4.09187 4.50222 3.9277 4.44878 3.90878 4.42987C3.90269 4.42378 3.87688 4.4188 3.85142 4.4188C3.82596 4.4188 3.80112 4.41231 3.79621 4.40437C3.79131 4.39642 3.75602 4.38573 3.7178 4.38061C3.66252 4.3732 3.62999 4.35321 3.5589 4.28299C3.50972 4.23444 3.46949 4.18637 3.46949 4.17618C3.46949 4.166 3.45072 4.14004 3.42778 4.11849C3.40484 4.09693 3.38607 4.06935 3.38607 4.05719C3.38607 4.04503 3.37963 4.03507 3.37176 4.03507C3.3438 4.03507 3.1525 3.65523 3.1525 3.5997C3.1525 3.5833 3.14499 3.56525 3.13582 3.55958C3.12664 3.55391 3.11913 3.5287 3.11913 3.50354C3.11913 3.47838 3.10976 3.44843 3.09828 3.43695C3.08263 3.4213 3.07742 3.3041 3.07742 2.9673C3.07742 2.63052 3.08263 2.51332 3.09828 2.49765C3.10976 2.48619 3.11913 2.45622 3.11913 2.43106C3.11913 2.40591 3.12664 2.3807 3.13582 2.37502C3.14499 2.36935 3.1525 2.34307 3.1525 2.31663C3.1525 2.29019 3.15916 2.26443 3.1673 2.2594C3.17542 2.25438 3.18715 2.22203 3.19336 2.18751C3.20691 2.112 3.23929 2.033 3.25667 2.033C3.26361 2.033 3.26929 2.01799 3.26929 1.99964C3.26929 1.98128 3.27679 1.96627 3.28597 1.96627C3.29515 1.96627 3.30265 1.95763 3.30265 1.94708C3.30265 1.90991 3.39333 1.74064 3.43119 1.70714C3.45226 1.6885 3.46949 1.66549 3.46949 1.65603C3.46949 1.64657 3.49202 1.61726 3.51954 1.59088C3.54707 1.5645 3.5696 1.53509 3.5696 1.5255C3.5696 1.50498 3.88787 1.18213 3.90811 1.18213C3.92413 1.18213 4.0591 1.07969 4.06727 1.06132C4.07031 1.05451 4.10034 1.03638 4.13401 1.02103C4.16769 1.00568 4.21026 0.980587 4.22861 0.965271C4.24696 0.949955 4.29951 0.923928 4.34539 0.907428C4.39128 0.890928 4.43595 0.870907 4.44466 0.862949C4.45339 0.854974 4.47778 0.84845 4.49889 0.84845C4.51999 0.84845 4.53726 0.840943 4.53726 0.831767C4.53726 0.82259 4.55041 0.815116 4.56646 0.815166C4.59765 0.81525 4.74342 0.77067 4.79145 0.746328C4.80739 0.73827 4.86138 0.731663 4.91143 0.731663C4.96148 0.731663 5.00708 0.724156 5.01275 0.71498C5.01886 0.705103 5.12154 0.698296 5.26452 0.698296C5.46113 0.698296 5.52524 0.704535 5.60973 0.731914ZM22.3973 5.63658C22.5469 5.65278 22.6548 5.67644 22.7099 5.70507C22.7258 5.71336 22.754 5.72014 22.7725 5.72014C22.791 5.72014 22.8061 5.72765 22.8061 5.73682C22.8061 5.746 22.8192 5.75347 22.8353 5.75342C22.8824 5.75329 23.0285 5.8094 23.0637 5.8411C23.0814 5.85715 23.1061 5.87029 23.1186 5.87029C23.131 5.87029 23.1577 5.88594 23.178 5.90508C23.1982 5.92421 23.2374 5.95143 23.2649 5.96554C23.2924 5.97967 23.345 6.01521 23.3817 6.04452C23.4184 6.07383 23.4822 6.12102 23.5235 6.1494C23.6366 6.22716 23.9962 6.5877 24.0448 6.67207C24.0683 6.71284 24.0927 6.77247 24.0992 6.80459C24.1114 6.86542 24.1387 6.93564 24.1919 7.043C24.2091 7.07777 24.2282 7.14364 24.2343 7.18935C24.2403 7.23508 24.2518 7.27651 24.2598 7.28143C24.2677 7.28637 24.2743 7.31203 24.2743 7.33847C24.2743 7.36492 24.281 7.39071 24.2892 7.39578C24.3158 7.41226 24.3279 7.54076 24.3352 7.88754C24.3399 8.11055 24.3364 8.23403 24.325 8.24541C24.3154 8.25495 24.3076 8.28708 24.3076 8.31683C24.3076 8.34658 24.3001 8.37554 24.2909 8.38121C24.2818 8.38689 24.2743 8.41316 24.2743 8.43961C24.2743 8.46605 24.2667 8.49233 24.2576 8.498C24.2484 8.50367 24.2409 8.52736 24.2409 8.55064C24.2409 8.57391 24.2302 8.61288 24.2172 8.63724C24.2041 8.6616 24.1893 8.69278 24.1842 8.70655C24.179 8.72031 24.156 8.7616 24.1329 8.79831C24.1098 8.83501 24.086 8.87631 24.0799 8.89007C24.0738 8.90384 24.0437 8.94988 24.013 8.99241C23.9824 9.03494 23.9573 9.07483 23.9573 9.08108C23.9573 9.08734 23.917 9.13209 23.8678 9.18054C23.8185 9.22899 23.7754 9.2772 23.7718 9.28768C23.7683 9.29816 23.6734 9.3995 23.561 9.5129C23.4486 9.62628 23.3566 9.72658 23.3566 9.73576C23.3566 9.74495 23.3419 9.76579 23.3239 9.78209C23.2838 9.81834 23.1564 10.0683 23.1564 10.1107C23.1564 10.1276 23.1489 10.1414 23.1398 10.1414C23.1306 10.1414 23.1231 10.1586 23.1231 10.1797C23.1231 10.2008 23.1161 10.2252 23.1075 10.234C23.0989 10.2427 23.0842 10.2986 23.0747 10.3583C23.0441 10.5507 23.0376 10.5829 23.0225 10.6168C23.0144 10.6352 23.0028 10.699 22.9969 10.7587C22.9792 10.9373 22.9853 12.4371 23.0046 12.6439C23.0145 12.7495 23.0267 12.8921 23.0317 12.9609C23.0367 13.0298 23.0475 13.1011 23.0556 13.1194C23.0636 13.1378 23.078 13.2654 23.0875 13.4031C23.097 13.5407 23.113 13.7059 23.123 13.7701C23.1331 13.8343 23.1454 13.9319 23.1505 13.987C23.1555 14.042 23.1654 14.0946 23.1726 14.1038C23.1797 14.113 23.1909 14.203 23.1974 14.304C23.2039 14.4049 23.2153 14.495 23.2228 14.5042C23.2361 14.5206 23.2488 14.5997 23.2669 14.7795C23.272 14.8299 23.283 14.8784 23.2914 14.8871C23.3181 14.9149 23.3077 15.0378 23.2725 15.1108C23.2216 15.2162 23.1201 15.3132 23.0487 15.3248C23.0157 15.3302 22.9848 15.341 22.9799 15.349C22.9658 15.3717 22.6659 15.3667 22.6426 15.3434C22.6276 15.3284 22.6226 15.1427 22.6226 14.6103C22.6226 14.1529 22.6166 13.8935 22.6059 13.8869C22.5967 13.8812 22.5892 13.8631 22.5892 13.8467C22.5892 13.8106 22.5505 13.7657 22.4724 13.7109C22.4154 13.671 22.4065 13.67 22.097 13.67H21.78L21.7185 13.7192C21.6846 13.7463 21.6471 13.7876 21.6351 13.811C21.6231 13.8344 21.6095 13.8573 21.6049 13.8619C21.5583 13.9083 21.5548 13.9641 21.5548 14.6552V15.3656L21.3921 15.3587C21.1889 15.35 21.0699 15.3212 21.0586 15.2782C21.0541 15.2608 21.0413 15.2466 21.0302 15.2466C20.9955 15.2466 20.9385 15.1724 20.9271 15.1123C20.921 15.0807 20.9087 15.0454 20.8997 15.0339C20.8889 15.0202 20.8896 14.9974 20.9017 14.9672C20.9118 14.9419 20.928 14.8462 20.9377 14.7544C20.9665 14.4822 20.9733 14.4383 20.9892 14.4216C20.9974 14.4129 21.0042 14.3702 21.0042 14.3267C21.0042 14.2831 21.011 14.2434 21.0192 14.2383C21.0274 14.2332 21.0396 14.1277 21.0462 14.0037C21.0529 13.8798 21.0649 13.7784 21.073 13.7784C21.081 13.7784 21.0876 13.7376 21.0876 13.6877C21.0876 13.6377 21.0951 13.5922 21.1043 13.5866C21.1135 13.5809 21.121 13.5266 21.121 13.4658C21.121 13.4051 21.1282 13.3323 21.1371 13.3041C21.1459 13.276 21.1612 13.1403 21.1711 13.0026C21.181 12.865 21.1967 12.651 21.2061 12.5272C21.2305 12.2055 21.2428 11.0087 21.2221 10.9672C21.213 10.9489 21.2021 10.8775 21.198 10.8087C21.1884 10.6518 21.1501 10.3981 21.1335 10.3817C21.1266 10.3749 21.121 10.3485 21.121 10.3231C21.121 10.2976 21.1135 10.2722 21.1043 10.2665C21.0951 10.2608 21.0876 10.2383 21.0876 10.2164C21.0876 10.1946 21.0801 10.1721 21.071 10.1664C21.0618 10.1607 21.0543 10.1441 21.0543 10.1295C21.0543 10.0927 20.9754 9.93283 20.9079 9.83271C20.8769 9.78683 20.7733 9.66974 20.6776 9.57252C20.582 9.47531 20.5037 9.3897 20.5037 9.38228C20.5037 9.37485 20.468 9.32937 20.4245 9.28119C20.301 9.14477 20.2034 9.02765 20.2034 9.01603C20.2034 9.01021 20.1958 8.99638 20.1865 8.9853C20.0972 8.87858 19.9701 8.64078 19.9699 8.58003C19.9699 8.56091 19.9647 8.54013 19.9584 8.53384C19.9106 8.48605 19.867 8.17905 19.8667 7.88904C19.8666 7.69843 19.8965 7.38193 19.9186 7.34066C19.9284 7.3223 19.9365 7.28804 19.9365 7.26449C19.9365 7.24095 19.944 7.22168 19.9531 7.22168C19.9623 7.22168 19.9698 7.20337 19.9698 7.18096C19.9698 7.15855 19.9773 7.1356 19.9865 7.12992C19.9957 7.12425 20.0032 7.10692 20.0033 7.0914C20.0034 7.07588 20.0146 7.04168 20.0283 7.01541C20.042 6.98911 20.0532 6.95346 20.0532 6.93616C20.0532 6.91886 20.0607 6.90469 20.0699 6.90469C20.0791 6.90469 20.0866 6.88968 20.0866 6.87132C20.0866 6.85297 20.0928 6.83796 20.1004 6.83796C20.108 6.83796 20.1383 6.79022 20.1676 6.7319C20.1969 6.67357 20.243 6.60411 20.2701 6.57757C20.2971 6.55103 20.3195 6.51993 20.3197 6.50845C20.32 6.49699 20.3261 6.48759 20.3333 6.48759C20.3405 6.48759 20.3593 6.46569 20.3751 6.43891C20.3909 6.41215 20.4571 6.33894 20.5222 6.27624C20.688 6.11648 20.7023 6.10387 20.7169 6.10387C20.7241 6.10387 20.7407 6.08885 20.754 6.0705C20.7672 6.05215 20.7867 6.03713 20.7973 6.03713C20.8079 6.03713 20.826 6.02587 20.8374 6.0121C20.8488 5.99834 20.8729 5.98708 20.891 5.98708C20.9091 5.98708 20.9528 5.96225 20.9883 5.93192C21.0237 5.90157 21.07 5.86859 21.091 5.8586C21.2688 5.77429 21.3219 5.75351 21.3594 5.75351C21.3832 5.75351 21.4073 5.746 21.413 5.73682C21.4186 5.72765 21.4412 5.72014 21.463 5.72014C21.4849 5.72014 21.5074 5.71263 21.5131 5.70345C21.5187 5.69428 21.5442 5.68677 21.5697 5.68677C21.5951 5.68677 21.6215 5.68115 21.6284 5.67426C21.6765 5.62571 22.1038 5.60477 22.3973 5.63658ZM10.7475 6.57101C10.7361 6.58937 10.7164 6.60438 10.7037 6.60438C10.6911 6.60438 10.677 6.61876 10.6724 6.63633C10.6678 6.65397 10.6464 6.6708 10.6246 6.67387C10.5936 6.67827 10.585 6.68987 10.5845 6.72834C10.5842 6.75522 10.5766 6.7796 10.5678 6.78252C10.5474 6.78926 10.5575 7.02148 10.5782 7.02148C10.5866 7.02148 10.5935 7.03117 10.5935 7.04303C10.5935 7.0735 10.7243 7.19522 10.7921 7.22777C10.8233 7.24277 10.8702 7.25505 10.8964 7.25505C10.9225 7.25505 10.9439 7.26159 10.9439 7.2696C10.9439 7.27761 10.9758 7.28917 11.0148 7.29529C11.0922 7.30744 11.186 7.33423 11.2314 7.35721C11.2474 7.36525 11.2755 7.37184 11.294 7.37184C11.3125 7.37184 11.3276 7.37935 11.3276 7.38852C11.3276 7.3977 11.3503 7.40521 11.3782 7.40521C11.406 7.40521 11.4557 7.41647 11.4887 7.43023C11.5216 7.444 11.566 7.45526 11.5872 7.45526C11.6085 7.45526 11.6306 7.46277 11.6362 7.47194C11.6419 7.48112 11.6612 7.48863 11.6792 7.48863C11.6971 7.48863 11.7248 7.49522 11.7407 7.50326C11.7863 7.52627 11.88 7.55303 11.9578 7.56524C11.997 7.57139 12.0331 7.58296 12.038 7.59091C12.0429 7.59889 12.069 7.60541 12.096 7.60541C12.123 7.60541 12.1451 7.61292 12.1451 7.6221C12.1451 7.63127 12.1602 7.63878 12.1787 7.63878C12.1972 7.63878 12.2253 7.6459 12.2413 7.65461C12.2572 7.66332 12.3057 7.67502 12.3491 7.68061C12.3924 7.68618 12.4323 7.69784 12.4377 7.70648C12.443 7.71513 12.4653 7.7222 12.4871 7.7222C12.509 7.7222 12.5315 7.72971 12.5372 7.73888C12.5428 7.74806 12.5691 7.75557 12.5956 7.75557C12.622 7.75557 12.6477 7.76209 12.6526 7.77007C12.6575 7.77802 12.6921 7.78944 12.7294 7.79539C12.7667 7.80137 12.81 7.81269 12.8257 7.82057C12.8742 7.84499 12.9716 7.87235 13.0099 7.87235C13.03 7.87235 13.0595 7.87923 13.0755 7.88764C13.1503 7.92713 13.2297 7.95577 13.2642 7.95577C13.3099 7.95577 13.4228 7.98991 13.5299 8.03602C13.5528 8.0459 13.6022 8.05861 13.6396 8.06425C13.7143 8.07553 13.823 8.10987 13.841 8.12787C13.8473 8.13416 13.8732 8.1393 13.8987 8.1393C13.9242 8.1393 13.949 8.14582 13.9539 8.15378C13.9589 8.16175 14.0012 8.17335 14.0481 8.17957C14.1307 8.19053 14.1465 8.1956 14.2262 8.2368C14.2467 8.24741 14.2861 8.25608 14.3138 8.25608C14.3414 8.25608 14.364 8.26359 14.364 8.27277C14.364 8.28194 14.3824 8.28945 14.4048 8.28945C14.4272 8.28945 14.4498 8.29644 14.4551 8.30497C14.4604 8.31351 14.5059 8.32564 14.5564 8.33195C14.6068 8.33825 14.6522 8.35003 14.6572 8.35814C14.6622 8.36625 14.688 8.37287 14.7144 8.37287C14.7409 8.37287 14.7671 8.38038 14.7728 8.38955C14.7785 8.39873 14.801 8.40624 14.8229 8.40624C14.8447 8.40624 14.867 8.41331 14.8723 8.42196C14.8777 8.4306 14.9175 8.44238 14.9609 8.44813C15.0043 8.45387 15.0548 8.46457 15.0731 8.47189C15.0915 8.4792 15.1252 8.49266 15.1482 8.5018C15.224 8.53199 15.3057 8.55493 15.3776 8.5662C15.4166 8.57233 15.4485 8.58389 15.4485 8.5919C15.4485 8.59991 15.4668 8.60645 15.4892 8.60645C15.5116 8.60645 15.5346 8.61395 15.5403 8.62313C15.5459 8.63231 15.5764 8.63981 15.608 8.63981C15.6396 8.63981 15.6654 8.64679 15.6654 8.6553C15.6654 8.6638 15.7068 8.67595 15.7574 8.68227C15.8079 8.6886 15.8534 8.70039 15.8585 8.7085C15.8635 8.71661 15.8854 8.72323 15.9073 8.72323C15.9292 8.72323 15.9517 8.73074 15.9574 8.73992C15.963 8.74909 15.9893 8.7566 16.0157 8.7566C16.0422 8.7566 16.0685 8.76411 16.0741 8.77328C16.0798 8.78246 16.1023 8.78997 16.1242 8.78997C16.146 8.78997 16.168 8.79659 16.173 8.8047C16.178 8.81281 16.2235 8.8246 16.2741 8.83093C16.3247 8.83725 16.3661 8.8494 16.3661 8.8579C16.3661 8.86641 16.3844 8.87339 16.4068 8.87339C16.4292 8.87339 16.4522 8.88089 16.4579 8.89007C16.4635 8.89925 16.4898 8.90675 16.5163 8.90675C16.5427 8.90675 16.5687 8.91375 16.5739 8.92227C16.5792 8.93081 16.6248 8.94294 16.6752 8.94925C16.7257 8.95555 16.7711 8.96733 16.7761 8.97544C16.7811 8.98355 16.8031 8.99017 16.8249 8.99017C16.8468 8.99017 16.8693 8.99768 16.875 9.00686C16.8806 9.01603 16.9069 9.02354 16.9334 9.02354C16.9598 9.02354 16.9855 9.03018 16.9906 9.03831C16.9956 9.04642 17.0334 9.05811 17.0746 9.06428C17.1158 9.07047 17.1538 9.0826 17.1592 9.09124C17.1645 9.09989 17.1947 9.10696 17.2263 9.10696C17.2579 9.10696 17.2837 9.11447 17.2837 9.12364C17.2837 9.13282 17.2951 9.14033 17.309 9.14033C17.3461 9.14033 17.4672 9.18009 17.4672 9.19228C17.4672 9.19804 17.5131 9.20795 17.5692 9.21429C17.6253 9.22064 17.6854 9.23287 17.7027 9.24148C17.72 9.25007 17.7491 9.26462 17.7673 9.2738C17.7856 9.28298 17.8151 9.29048 17.8331 9.29048C17.851 9.29048 17.8698 9.29711 17.8748 9.30521C17.8798 9.31332 17.9252 9.3251 17.9756 9.33141C18.0261 9.33771 18.0716 9.34984 18.0769 9.35839C18.0822 9.36691 18.1048 9.3739 18.1272 9.3739C18.1496 9.3739 18.168 9.38141 18.168 9.39059C18.168 9.41121 18.2581 9.41258 18.2975 9.39254C18.3134 9.38443 18.349 9.36791 18.3765 9.35585C18.453 9.3223 18.5517 9.22248 18.5517 9.17865C18.5517 9.15758 18.5592 9.14033 18.5684 9.14033C18.5776 9.14033 18.5851 9.10324 18.5851 9.05789C18.5851 9.01255 18.5776 8.97082 18.5684 8.96515C18.5592 8.95948 18.5517 8.93652 18.5517 8.91411C18.5517 8.89171 18.5461 8.87334 18.5392 8.87327C18.5323 8.8732 18.5088 8.84693 18.487 8.81488C18.4652 8.78283 18.4372 8.7566 18.4249 8.7566C18.4126 8.7566 18.375 8.7411 18.3412 8.72216C18.3075 8.70321 18.2432 8.68337 18.1984 8.67807C18.1536 8.67276 18.113 8.66199 18.1081 8.65411C18.1032 8.64625 18.0808 8.63981 18.0583 8.63981C18.0358 8.63981 18.0024 8.63231 17.9842 8.62313C17.966 8.61395 17.9363 8.59904 17.9183 8.58998C17.9002 8.58092 17.8439 8.56862 17.7931 8.56265C17.7424 8.55668 17.7008 8.54533 17.7008 8.53741C17.7008 8.5295 17.6825 8.52303 17.6601 8.52303C17.6377 8.52303 17.6147 8.51552 17.6091 8.50634C17.6034 8.49717 17.5804 8.48966 17.558 8.48966C17.5356 8.48966 17.5173 8.4832 17.5173 8.47529C17.5173 8.4674 17.4785 8.45634 17.431 8.45072C17.3835 8.4451 17.337 8.43278 17.3275 8.42337C17.3181 8.41395 17.2898 8.40624 17.2647 8.40624C17.2395 8.40624 17.2143 8.39873 17.2086 8.38955C17.203 8.38038 17.1804 8.37287 17.1586 8.37287C17.1367 8.37287 17.1142 8.36536 17.1085 8.35619C17.1029 8.34701 17.0743 8.33924 17.045 8.33892C17.0157 8.33859 16.973 8.32759 16.95 8.31448C16.9271 8.30136 16.8881 8.29037 16.8634 8.29004C16.8387 8.28972 16.8139 8.28194 16.8082 8.27277C16.8026 8.26359 16.7763 8.25608 16.7498 8.25608C16.7234 8.25608 16.6971 8.24858 16.6914 8.2394C16.6858 8.23022 16.6628 8.22272 16.6404 8.22272C16.618 8.22272 16.5997 8.21626 16.5997 8.20835C16.5997 8.20046 16.5608 8.1894 16.5134 8.18378C16.4659 8.17815 16.4193 8.16584 16.4099 8.15643C16.4005 8.147 16.376 8.1393 16.3554 8.1393C16.3348 8.1393 16.3134 8.13179 16.3077 8.12261C16.302 8.11344 16.2766 8.10593 16.2511 8.10593C16.2257 8.10593 16.1992 8.10031 16.1923 8.09343C16.1789 8.08 16.0419 8.04238 15.9532 8.02778C15.9234 8.02288 15.899 8.01217 15.899 8.00401C15.899 7.99583 15.8801 7.98914 15.857 7.98914C15.834 7.98914 15.802 7.98257 15.7861 7.97453C15.7587 7.96073 15.6683 7.93368 15.4985 7.88852C15.4248 7.8689 15.3652 7.8475 15.3144 7.8224C15.3002 7.81541 15.242 7.8043 15.185 7.79768C15.128 7.79107 15.0772 7.77888 15.0721 7.77062C15.067 7.76234 15.0445 7.75557 15.0221 7.75557C14.9997 7.75557 14.9813 7.7497 14.9813 7.74252C14.9813 7.72722 14.8698 7.69365 14.7683 7.67846C14.7291 7.67257 14.693 7.66124 14.688 7.65328C14.6831 7.6453 14.6608 7.63878 14.6383 7.63878C14.6159 7.63878 14.5976 7.63127 14.5976 7.6221C14.5976 7.61292 14.5718 7.60541 14.5402 7.60541C14.5086 7.60541 14.4784 7.59834 14.4731 7.5897C14.4677 7.58105 14.4297 7.56893 14.3885 7.56274C14.3473 7.55656 14.3095 7.54487 14.3045 7.53676C14.2994 7.52863 14.2775 7.52199 14.2556 7.52199C14.2337 7.52199 14.2112 7.51449 14.2056 7.50531C14.1999 7.49613 14.1657 7.48863 14.1295 7.48863C14.0933 7.48863 14.0637 7.48112 14.0637 7.47194C14.0637 7.46277 14.0454 7.45526 14.023 7.45526C14.0006 7.45526 13.9779 7.44818 13.9726 7.43954C13.9672 7.4309 13.9274 7.41912 13.884 7.41337C13.8101 7.40357 13.762 7.38846 13.6928 7.3532C13.6768 7.34509 13.6491 7.33847 13.6312 7.33847C13.6132 7.33847 13.5945 7.33185 13.5894 7.32374C13.5844 7.31563 13.5391 7.30385 13.4886 7.29755C13.4382 7.29124 13.3926 7.27911 13.3873 7.27057C13.3821 7.26204 13.3598 7.25505 13.338 7.25505C13.3161 7.25505 13.2936 7.24754 13.2879 7.23837C13.2823 7.22919 13.2556 7.22168 13.2286 7.22168C13.2016 7.22168 13.1795 7.21523 13.1795 7.20732C13.1795 7.19943 13.1425 7.18858 13.0973 7.18323C13.0522 7.17789 13.0015 7.16649 12.9847 7.15794C12.9395 7.13483 12.8391 7.1049 12.8069 7.1049C12.7913 7.1049 12.7637 7.09739 12.7455 7.08821C12.7273 7.07904 12.6989 7.06494 12.6825 7.0569C12.6661 7.04884 12.6135 7.03688 12.5657 7.0303C12.5179 7.02373 12.4788 7.01155 12.4788 7.00323C12.4788 6.99492 12.4652 6.98811 12.4485 6.98811C12.4319 6.98811 12.3887 6.97403 12.3526 6.95681C12.3165 6.93961 12.2437 6.92029 12.191 6.9139C12.1382 6.90751 12.095 6.89715 12.095 6.89088C12.095 6.87536 11.9719 6.83796 11.9209 6.83796C11.8982 6.83796 11.852 6.81919 11.8182 6.79625C11.7793 6.76985 11.7334 6.75454 11.6933 6.75454C11.6584 6.75454 11.6252 6.74703 11.6196 6.73785C11.6139 6.72868 11.5797 6.72117 11.5435 6.72117C11.5073 6.72117 11.4777 6.71328 11.4777 6.70363C11.4777 6.6722 11.3643 6.63775 11.2609 6.63775C11.1913 6.63775 11.157 6.63071 11.1511 6.61519C11.1458 6.60141 11.1265 6.59569 11.1015 6.60046C11.0779 6.60498 11.0606 6.60041 11.0606 6.58965C11.0606 6.57939 11.0423 6.57101 11.0199 6.57101C10.9975 6.57101 10.9746 6.56351 10.9689 6.55433C10.9632 6.54515 10.9158 6.53765 10.8635 6.53765C10.7864 6.53765 10.7644 6.54399 10.7475 6.57101ZM4.74581 18.0996C4.75148 18.1087 4.75942 18.1162 4.76347 18.1162C4.76753 18.1162 4.77083 18.1087 4.77083 18.0996C4.77083 18.0904 4.76287 18.0829 4.75316 18.0829C4.74345 18.0829 4.74013 18.0904 4.74581 18.0996Z" fill="#00A04A"/>
</svg>
